STARTFONT 2.1
FONT -FontForge-Inconsolata LGC-Regular-R-Normal--21-1260-12-12-P-125-ISO10646-1
SIZE 126 12 12
FONTBOUNDINGBOX 15 26 -2 -4
COMMENT "Generated by fontforge, http://fontforge.sourceforge.net"
COMMENT "Original Roman version created by Raph Levien using his own tools and FontForge. Copyright 2006 Raph Levien. Hellenisation of the Roman font, by Dimosthenis Kaponis, using FontForge. Hellenic glyphs Copyright 2010-2012 Dimosthenis Kaponis. Released under the SIL Open Font License, http://scripts.sil.org/OFL."
COMMENT ""
COMMENT "Cyrillic glyphs added by MihailJP, using FontForge. Cyrillic glyphs Copyright 2012 MihailJP. Released under the SIL Open Font License, http://scripts.sil.org/OFL."
COMMENT ""
COMMENT "Some glyphs modified by Greg Omelaenko, using FontForge."
STARTPROPERTIES 40
FOUNDRY "FontForge"
FAMILY_NAME "Inconsolata LGC"
WEIGHT_NAME "Regular"
SLANT "R"
SETWIDTH_NAME "Normal"
ADD_STYLE_NAME ""
PIXEL_SIZE 21
POINT_SIZE 1260
RESOLUTION_X 12
RESOLUTION_Y 12
SPACING "P"
AVERAGE_WIDTH 125
CHARSET_REGISTRY "ISO10646"
CHARSET_ENCODING "1"
FONTNAME_REGISTRY ""
CHARSET_COLLECTIONS "ASCII ISOLatin1Encoding ISO8859-2 ISO8859-5 ISO8859-7 ISO8859-9 ISO8859-4 ISO10646-1"
FONT_NAME "InconsolataLGC"
FACE_NAME "Inconsolata LGC"
COPYRIGHT "Original Roman version created by Raph Levien using his own tools and FontForge. Copyright 2006 Raph Levien. Hellenisation of the Roman font, by Dimosthenis Kaponis, using FontForge. Hellenic glyphs Copyright 2010-2012 Dimosthenis Kaponis. Released under the SIL Open Font License, http://scripts.sil.org/OFL."
FONT_VERSION "1.2"
FONT_ASCENT 17
FONT_DESCENT 4
UNDERLINE_POSITION -3
UNDERLINE_THICKNESS 2
X_HEIGHT 10
CAP_HEIGHT 14
RAW_ASCENT 820
RAW_DESCENT 179
NORM_SPACE 13
RELATIVE_WEIGHT 50
RELATIVE_SETWIDTH 50
SUPERSCRIPT_X 0
SUPERSCRIPT_Y 10
SUPERSCRIPT_SIZE 14
SUBSCRIPT_X 0
SUBSCRIPT_Y 2
SUBSCRIPT_SIZE 14
FIGURE_WIDTH 13
AVG_LOWERCASE_WIDTH 125
AVG_UPPERCASE_WIDTH 125
ENDPROPERTIES
CHARS 678
STARTCHAR space
ENCODING 32
SWIDTH 598 0
DWIDTH 13 0
BBX 1 1 0 0
BITMAP
00
ENDCHAR
STARTCHAR exclam
ENCODING 33
SWIDTH 598 0
DWIDTH 13 0
BBX 2 16 5 0
BITMAP
C0
C0
C0
C0
C0
C0
C0
C0
C0
C0
C0
00
00
C0
C0
C0
ENDCHAR
STARTCHAR quotedbl
ENCODING 34
SWIDTH 612 0
DWIDTH 13 0
BBX 6 6 4 10
BITMAP
8C
8C
8C
8C
8C
8C
ENDCHAR
STARTCHAR numbersign
ENCODING 35
SWIDTH 598 0
DWIDTH 13 0
BBX 11 15 1 0
BITMAP
1980
1980
1980
1180
FFE0
1100
1100
1100
3100
FFC0
3300
2300
2300
2200
2200
ENDCHAR
STARTCHAR dollar
ENCODING 36
SWIDTH 598 0
DWIDTH 13 0
BBX 9 17 2 -1
BITMAP
0800
0800
3F00
6980
C800
C800
E800
7800
1E00
0B80
0980
0880
0880
C980
7F00
1C00
0800
ENDCHAR
STARTCHAR percent
ENCODING 37
SWIDTH 598 0
DWIDTH 13 0
BBX 11 15 1 0
BITMAP
78C0
C880
8980
8900
DB00
7200
0600
0C00
0C00
19C0
1260
3260
2260
6260
43C0
ENDCHAR
STARTCHAR ampersand
ENCODING 38
SWIDTH 598 0
DWIDTH 13 0
BBX 11 15 1 0
BITMAP
1E00
3300
6300
6300
3300
3600
1C00
3C00
6440
4660
C3C0
C180
C180
67C0
3C40
ENDCHAR
STARTCHAR quotesingle
ENCODING 39
SWIDTH 612 0
DWIDTH 13 0
BBX 2 6 6 10
BITMAP
C0
C0
C0
C0
C0
C0
ENDCHAR
STARTCHAR parenleft
ENCODING 40
SWIDTH 598 0
DWIDTH 13 0
BBX 6 20 4 -4
BITMAP
0C
1C
30
60
60
C0
C0
80
80
80
80
80
C0
C0
40
60
30
38
1C
04
ENDCHAR
STARTCHAR parenright
ENCODING 41
SWIDTH 598 0
DWIDTH 13 0
BBX 7 20 2 -4
BITMAP
C0
E0
30
18
0C
0C
06
06
06
06
06
06
06
04
0C
0C
18
30
E0
C0
ENDCHAR
STARTCHAR asterisk
ENCODING 42
SWIDTH 598 0
DWIDTH 13 0
BBX 10 10 1 3
BITMAP
0C00
0C00
0400
44C0
F7C0
0E00
0E00
1B00
3180
6180
ENDCHAR
STARTCHAR plus
ENCODING 43
SWIDTH 598 0
DWIDTH 13 0
BBX 10 10 1 3
BITMAP
0400
0400
0400
0400
FFC0
FFC0
0400
0400
0400
0400
ENDCHAR
STARTCHAR comma
ENCODING 44
SWIDTH 598 0
DWIDTH 13 0
BBX 4 6 4 -4
BITMAP
60
70
20
20
40
C0
ENDCHAR
STARTCHAR hyphen
ENCODING 45
SWIDTH 598 0
DWIDTH 13 0
BBX 9 1 2 7
BITMAP
FF80
ENDCHAR
STARTCHAR period
ENCODING 46
SWIDTH 598 0
DWIDTH 13 0
BBX 2 2 5 0
BITMAP
C0
C0
ENDCHAR
STARTCHAR slash
ENCODING 47
SWIDTH 598 0
DWIDTH 13 0
BBX 9 17 2 -1
BITMAP
0180
0100
0300
0200
0600
0600
0C00
0C00
1800
1800
3000
3000
2000
6000
4000
C000
8000
ENDCHAR
STARTCHAR zero
ENCODING 48
SWIDTH 598 0
DWIDTH 13 0
BBX 10 15 1 0
BITMAP
1E00
3300
2180
6180
41C0
43C0
C640
CC40
C840
58C0
70C0
60C0
2180
3B80
1F00
ENDCHAR
STARTCHAR one
ENCODING 49
SWIDTH 598 0
DWIDTH 13 0
BBX 5 15 3 0
BITMAP
38
F8
98
18
18
18
18
18
18
18
18
18
18
18
18
ENDCHAR
STARTCHAR two
ENCODING 50
SWIDTH 598 0
DWIDTH 13 0
BBX 9 15 2 0
BITMAP
3E00
6700
C100
0180
0180
0100
0300
0600
0C00
1800
3000
6000
6000
C080
FF80
ENDCHAR
STARTCHAR three
ENCODING 51
SWIDTH 598 0
DWIDTH 13 0
BBX 9 15 2 0
BITMAP
7C00
E600
0300
0100
0300
0300
1E00
1E00
0300
0100
0180
0100
0300
E700
7E00
ENDCHAR
STARTCHAR four
ENCODING 52
SWIDTH 598 0
DWIDTH 13 0
BBX 10 15 1 0
BITMAP
0300
0300
0700
0D00
0900
1900
3100
2100
6100
FFC0
FFC0
0300
0300
0300
0300
ENDCHAR
STARTCHAR five
ENCODING 53
SWIDTH 598 0
DWIDTH 13 0
BBX 9 15 2 0
BITMAP
7F00
4000
4000
4000
C000
DC00
FF00
C300
0180
0180
0180
0180
C180
E300
7E00
ENDCHAR
STARTCHAR six
ENCODING 54
SWIDTH 598 0
DWIDTH 13 0
BBX 9 15 2 0
BITMAP
1F00
3300
6000
C000
C000
DC00
FF00
E300
C180
C180
C180
C180
4100
7300
3E00
ENDCHAR
STARTCHAR seven
ENCODING 55
SWIDTH 598 0
DWIDTH 13 0
BBX 9 15 2 0
BITMAP
FF80
0100
0300
0300
0600
0600
0400
0C00
0C00
1800
1800
1800
3000
3000
3000
ENDCHAR
STARTCHAR eight
ENCODING 56
SWIDTH 598 0
DWIDTH 13 0
BBX 9 15 2 0
BITMAP
3E00
6300
4100
C100
4300
6300
3E00
3E00
6300
C180
8180
8180
C180
E300
3E00
ENDCHAR
STARTCHAR nine
ENCODING 57
SWIDTH 598 0
DWIDTH 13 0
BBX 9 15 2 0
BITMAP
3E00
6700
C300
C100
C180
C180
C180
6380
7F80
0180
0180
0100
0300
C600
7C00
ENDCHAR
STARTCHAR colon
ENCODING 58
SWIDTH 598 0
DWIDTH 13 0
BBX 2 10 5 0
BITMAP
C0
C0
00
00
00
00
00
00
C0
C0
ENDCHAR
STARTCHAR semicolon
ENCODING 59
SWIDTH 598 0
DWIDTH 13 0
BBX 4 14 4 -4
BITMAP
60
60
00
00
00
00
00
00
60
70
20
20
40
C0
ENDCHAR
STARTCHAR less
ENCODING 60
SWIDTH 598 0
DWIDTH 13 0
BBX 10 11 1 2
BITMAP
00C0
0380
0E00
3800
E000
C000
7000
1C00
0700
0380
00C0
ENDCHAR
STARTCHAR equal
ENCODING 61
SWIDTH 598 0
DWIDTH 13 0
BBX 10 7 1 4
BITMAP
FFC0
FFC0
0000
0000
0000
FFC0
FFC0
ENDCHAR
STARTCHAR greater
ENCODING 62
SWIDTH 598 0
DWIDTH 13 0
BBX 11 13 1 1
BITMAP
8000
E000
7800
1C00
0700
01C0
00E0
0380
0700
1C00
7000
C000
8000
ENDCHAR
STARTCHAR question
ENCODING 63
SWIDTH 598 0
DWIDTH 13 0
BBX 9 16 2 0
BITMAP
3E00
F700
C300
0180
0180
0380
0300
0600
0C00
0800
0800
0800
0000
0000
1C00
1C00
ENDCHAR
STARTCHAR at
ENCODING 64
SWIDTH 598 0
DWIDTH 13 0
BBX 11 15 1 0
BITMAP
1F80
30C0
6040
4040
C3C0
CE60
8860
9860
8860
CCE0
C760
4000
6000
3880
1F80
ENDCHAR
STARTCHAR A
ENCODING 65
SWIDTH 598 0
DWIDTH 13 0
BBX 11 15 1 0
BITMAP
0800
0C00
0C00
0E00
1E00
1200
1300
3300
2180
7F80
7F80
40C0
C0C0
C040
8060
ENDCHAR
STARTCHAR B
ENCODING 66
SWIDTH 598 0
DWIDTH 13 0
BBX 10 15 1 0
BITMAP
FF00
C380
C0C0
C0C0
C0C0
C180
FF00
FF80
C0C0
C0C0
C040
C0C0
C0C0
C780
FF00
ENDCHAR
STARTCHAR C
ENCODING 67
SWIDTH 598 0
DWIDTH 13 0
BBX 10 15 1 0
BITMAP
1F80
31C0
6040
6000
4000
C000
C000
C000
C000
C000
4000
6000
6040
39C0
1F80
ENDCHAR
STARTCHAR D
ENCODING 68
SWIDTH 598 0
DWIDTH 13 0
BBX 9 15 2 0
BITMAP
FC00
8700
8300
8180
8180
8080
8080
8080
8080
8080
8180
8180
8300
8E00
FC00
ENDCHAR
STARTCHAR E
ENCODING 69
SWIDTH 598 0
DWIDTH 13 0
BBX 9 15 2 0
BITMAP
FF80
8000
8000
8000
8000
8000
FF00
FF00
8000
8000
8000
8000
8000
FF80
FF80
ENDCHAR
STARTCHAR F
ENCODING 70
SWIDTH 598 0
DWIDTH 13 0
BBX 9 15 2 0
BITMAP
FF80
C000
C000
C000
C000
C000
FE00
FE00
C000
C000
C000
C000
C000
C000
C000
ENDCHAR
STARTCHAR G
ENCODING 71
SWIDTH 598 0
DWIDTH 13 0
BBX 10 15 1 0
BITMAP
1F80
31C0
6040
4000
C000
C000
C000
C000
C3C0
C040
C040
6040
6040
38C0
1F80
ENDCHAR
STARTCHAR H
ENCODING 72
SWIDTH 598 0
DWIDTH 13 0
BBX 9 15 2 0
BITMAP
8180
8180
8180
8180
8180
8180
FF80
FF80
8180
8180
8180
8180
8180
8180
8180
ENDCHAR
STARTCHAR I
ENCODING 73
SWIDTH 598 0
DWIDTH 13 0
BBX 8 15 2 0
BITMAP
FF
18
18
18
18
18
18
18
18
18
18
18
18
18
FF
ENDCHAR
STARTCHAR J
ENCODING 74
SWIDTH 598 0
DWIDTH 13 0
BBX 10 15 1 0
BITMAP
1FC0
0300
0300
0300
0300
0300
0300
0300
0300
0300
0300
0300
4300
E600
7C00
ENDCHAR
STARTCHAR K
ENCODING 75
SWIDTH 598 0
DWIDTH 13 0
BBX 10 15 1 0
BITMAP
C0C0
C180
C300
C600
CC00
D800
F800
F800
CC00
C600
C600
C300
C180
C1C0
C0C0
ENDCHAR
STARTCHAR L
ENCODING 76
SWIDTH 598 0
DWIDTH 13 0
BBX 9 15 2 0
BITMAP
C000
C000
C000
C000
C000
C000
C000
C000
C000
C000
C000
C000
C000
C000
FF80
ENDCHAR
STARTCHAR M
ENCODING 77
SWIDTH 598 0
DWIDTH 13 0
BBX 10 15 1 0
BITMAP
C040
C0C0
E0C0
E1C0
F140
D340
DA40
CE40
CC40
C440
C040
C040
C040
C040
C040
ENDCHAR
STARTCHAR N
ENCODING 78
SWIDTH 598 0
DWIDTH 13 0
BBX 10 15 1 0
BITMAP
C0C0
E0C0
F0C0
F0C0
D8C0
D8C0
CCC0
C4C0
C6C0
C3C0
C3C0
C1C0
C1C0
C0C0
C0C0
ENDCHAR
STARTCHAR O
ENCODING 79
SWIDTH 598 0
DWIDTH 13 0
BBX 11 15 1 0
BITMAP
1F00
3380
60C0
40C0
C040
C060
C060
C060
C060
C060
C040
40C0
60C0
3B80
1F00
ENDCHAR
STARTCHAR P
ENCODING 80
SWIDTH 598 0
DWIDTH 13 0
BBX 9 15 2 0
BITMAP
FE00
8700
8180
8180
8080
8180
8380
FF00
8000
8000
8000
8000
8000
8000
8000
ENDCHAR
STARTCHAR Q
ENCODING 81
SWIDTH 598 0
DWIDTH 13 0
BBX 11 19 1 -4
BITMAP
1F00
3180
60C0
40C0
C040
C060
C060
C060
C060
C060
C040
40C0
60C0
3380
1F00
0400
0600
07C0
00C0
ENDCHAR
STARTCHAR R
ENCODING 82
SWIDTH 598 0
DWIDTH 13 0
BBX 9 15 2 0
BITMAP
FE00
8700
8180
8180
8180
8180
8300
FE00
8C00
8600
8600
8300
8300
8180
8180
ENDCHAR
STARTCHAR S
ENCODING 83
SWIDTH 598 0
DWIDTH 13 0
BBX 9 15 2 0
BITMAP
3E00
6380
C100
C000
C000
6000
7800
1E00
0300
0180
0080
0080
8180
E300
7E00
ENDCHAR
STARTCHAR T
ENCODING 84
SWIDTH 598 0
DWIDTH 13 0
BBX 10 15 1 0
BITMAP
FFC0
0C00
0C00
0C00
0C00
0C00
0C00
0C00
0C00
0C00
0C00
0C00
0C00
0C00
0C00
ENDCHAR
STARTCHAR U
ENCODING 85
SWIDTH 598 0
DWIDTH 13 0
BBX 10 15 1 0
BITMAP
C040
C040
C040
C040
C040
C040
C040
C040
C040
C040
C040
40C0
60C0
7180
3F00
ENDCHAR
STARTCHAR V
ENCODING 86
SWIDTH 598 0
DWIDTH 13 0
BBX 11 15 1 0
BITMAP
C060
C040
40C0
60C0
6080
2180
3180
3100
1300
1B00
1A00
0E00
0E00
0C00
0400
ENDCHAR
STARTCHAR W
ENCODING 87
SWIDTH 598 0
DWIDTH 13 0
BBX 11 15 1 0
BITMAP
8020
8460
C460
C460
CE40
4E40
4A40
4B40
73C0
71C0
7180
7180
2180
2080
2080
ENDCHAR
STARTCHAR X
ENCODING 88
SWIDTH 598 0
DWIDTH 13 0
BBX 10 15 1 0
BITMAP
40C0
6080
3180
3300
1B00
1E00
0E00
0C00
0E00
1B00
1300
3180
2180
60C0
C0C0
ENDCHAR
STARTCHAR Y
ENCODING 89
SWIDTH 598 0
DWIDTH 13 0
BBX 10 15 1 0
BITMAP
C040
60C0
6080
3180
3180
1B00
1B00
0E00
0E00
0400
0400
0400
0400
0400
0400
ENDCHAR
STARTCHAR Z
ENCODING 90
SWIDTH 598 0
DWIDTH 13 0
BBX 10 15 1 0
BITMAP
7FC0
00C0
0180
0180
0300
0200
0600
0C00
0C00
1800
3000
3000
6000
6000
FFC0
ENDCHAR
STARTCHAR bracketleft
ENCODING 91
SWIDTH 598 0
DWIDTH 13 0
BBX 7 18 3 -2
BITMAP
FE
C0
C0
C0
C0
C0
C0
C0
C0
C0
C0
C0
C0
C0
C0
C0
C0
FE
ENDCHAR
STARTCHAR backslash
ENCODING 92
SWIDTH 598 0
DWIDTH 13 0
BBX 8 17 2 -1
BITMAP
C0
C0
40
60
20
30
10
18
18
0C
0C
06
06
03
03
01
01
ENDCHAR
STARTCHAR bracketright
ENCODING 93
SWIDTH 598 0
DWIDTH 13 0
BBX 7 18 2 -2
BITMAP
FE
02
02
02
02
02
02
02
02
02
02
02
02
02
02
02
02
FE
ENDCHAR
STARTCHAR asciicircum
ENCODING 94
SWIDTH 598 0
DWIDTH 13 0
BBX 7 7 3 8
BITMAP
10
38
38
6C
C4
86
80
ENDCHAR
STARTCHAR underscore
ENCODING 95
SWIDTH 598 0
DWIDTH 13 0
BBX 11 2 1 -2
BITMAP
FFE0
FFE0
ENDCHAR
STARTCHAR grave
ENCODING 96
SWIDTH 612 0
DWIDTH 13 0
BBX 3 8 4 7
BITMAP
80
80
80
C0
C0
60
20
20
ENDCHAR
STARTCHAR a
ENCODING 97
SWIDTH 598 0
DWIDTH 13 0
BBX 10 11 1 0
BITMAP
3F00
2180
00C0
00C0
03C0
3FC0
60C0
C0C0
C0C0
63C0
3EC0
ENDCHAR
STARTCHAR b
ENCODING 98
SWIDTH 598 0
DWIDTH 13 0
BBX 9 16 2 0
BITMAP
8000
8000
8000
8000
8000
BE00
E300
C180
C180
8180
8080
8180
C180
C180
E700
BE00
ENDCHAR
STARTCHAR c
ENCODING 99
SWIDTH 598 0
DWIDTH 13 0
BBX 9 11 2 0
BITMAP
3F00
6180
C080
C000
8000
8000
C000
C000
C000
7380
3F00
ENDCHAR
STARTCHAR d
ENCODING 100
SWIDTH 598 0
DWIDTH 13 0
BBX 10 16 1 0
BITMAP
00C0
00C0
00C0
00C0
00C0
3EC0
71C0
60C0
C0C0
C0C0
C0C0
C0C0
40C0
61C0
73C0
3EC0
ENDCHAR
STARTCHAR e
ENCODING 101
SWIDTH 598 0
DWIDTH 13 0
BBX 10 11 1 0
BITMAP
1F00
3180
60C0
40C0
FFC0
FFC0
C000
4000
6000
30C0
1F80
ENDCHAR
STARTCHAR f
ENCODING 102
SWIDTH 598 0
DWIDTH 13 0
BBX 10 16 2 0
BITMAP
0F80
18C0
3000
3000
3000
3000
FE00
3000
3000
3000
3000
3000
3000
3000
3000
3000
ENDCHAR
STARTCHAR g
ENCODING 103
SWIDTH 598 0
DWIDTH 13 0
BBX 11 15 1 -4
BITMAP
3EE0
6300
4180
4180
6180
7300
3E00
6000
6000
7F80
6FC0
C040
C040
E1C0
7F00
ENDCHAR
STARTCHAR h
ENCODING 104
SWIDTH 598 0
DWIDTH 13 0
BBX 9 16 2 0
BITMAP
C000
C000
C000
C000
C000
DF00
F300
C180
C180
C180
C180
C180
C180
C180
C180
C180
ENDCHAR
STARTCHAR i
ENCODING 105
SWIDTH 598 0
DWIDTH 13 0
BBX 7 16 3 0
BITMAP
30
38
10
00
00
F0
30
30
30
30
30
30
30
30
30
FE
ENDCHAR
STARTCHAR j
ENCODING 106
SWIDTH 598 0
DWIDTH 13 0
BBX 8 20 2 -4
BITMAP
06
07
02
00
00
7E
06
06
06
06
06
06
06
06
06
06
06
86
CC
F8
ENDCHAR
STARTCHAR k
ENCODING 107
SWIDTH 598 0
DWIDTH 13 0
BBX 9 16 2 0
BITMAP
C000
C000
C000
C000
C000
C380
C600
CC00
D800
F800
F800
CC00
C600
C300
C380
C180
ENDCHAR
STARTCHAR l
ENCODING 108
SWIDTH 598 0
DWIDTH 13 0
BBX 8 16 2 0
BITMAP
F8
18
18
18
18
18
18
18
18
18
18
18
18
18
18
FF
ENDCHAR
STARTCHAR m
ENCODING 109
SWIDTH 598 0
DWIDTH 13 0
BBX 11 11 1 0
BITMAP
FFC0
CE60
C460
C460
C460
C460
C460
C460
C460
C460
C460
ENDCHAR
STARTCHAR n
ENCODING 110
SWIDTH 598 0
DWIDTH 13 0
BBX 9 11 2 0
BITMAP
DF00
F300
C180
C180
C180
C180
C180
C180
C180
C180
C180
ENDCHAR
STARTCHAR o
ENCODING 111
SWIDTH 598 0
DWIDTH 13 0
BBX 10 11 1 0
BITMAP
1F00
3180
60C0
C0C0
C040
C040
C040
C0C0
60C0
3180
1F00
ENDCHAR
STARTCHAR p
ENCODING 112
SWIDTH 598 0
DWIDTH 13 0
BBX 9 15 2 -4
BITMAP
BE00
E300
C180
C180
8080
8080
8080
C180
C180
E300
BE00
8000
8000
8000
8000
ENDCHAR
STARTCHAR q
ENCODING 113
SWIDTH 598 0
DWIDTH 13 0
BBX 10 15 1 -4
BITMAP
3FC0
71C0
60C0
C0C0
C0C0
C0C0
C0C0
40C0
61C0
73C0
1EC0
00C0
00C0
00C0
00C0
ENDCHAR
STARTCHAR r
ENCODING 114
SWIDTH 598 0
DWIDTH 13 0
BBX 8 11 3 0
BITMAP
9F
B1
E0
C0
80
80
80
80
80
80
80
ENDCHAR
STARTCHAR s
ENCODING 115
SWIDTH 598 0
DWIDTH 13 0
BBX 9 11 2 0
BITMAP
3F00
6380
C000
E000
7800
1F00
0380
0180
8180
E300
7E00
ENDCHAR
STARTCHAR t
ENCODING 116
SWIDTH 598 0
DWIDTH 13 0
BBX 9 14 2 0
BITMAP
1000
1000
1000
FF00
3000
3000
3000
3000
3000
3000
3000
3000
1980
1F00
ENDCHAR
STARTCHAR u
ENCODING 117
SWIDTH 598 0
DWIDTH 13 0
BBX 9 11 2 0
BITMAP
C180
C180
C180
C180
C180
C180
C180
C180
C380
E780
7D80
ENDCHAR
STARTCHAR v
ENCODING 118
SWIDTH 598 0
DWIDTH 13 0
BBX 10 11 1 0
BITMAP
C040
60C0
60C0
2080
3180
3100
1B00
1A00
0E00
0E00
0C00
ENDCHAR
STARTCHAR w
ENCODING 119
SWIDTH 598 0
DWIDTH 13 0
BBX 11 11 1 0
BITMAP
8060
8460
CC60
CE40
4A40
4A40
5B40
73C0
71C0
3180
3180
ENDCHAR
STARTCHAR x
ENCODING 120
SWIDTH 598 0
DWIDTH 13 0
BBX 9 11 2 0
BITMAP
C100
4300
6600
3400
1C00
1800
3C00
3600
6300
C300
C180
ENDCHAR
STARTCHAR y
ENCODING 121
SWIDTH 598 0
DWIDTH 13 0
BBX 10 15 1 -4
BITMAP
4040
60C0
60C0
3080
3180
1100
1900
1B00
0E00
0E00
0600
0400
0C00
9800
F000
ENDCHAR
STARTCHAR z
ENCODING 122
SWIDTH 598 0
DWIDTH 13 0
BBX 10 11 1 0
BITMAP
7FC0
0180
0300
0300
0600
0C00
1800
3000
3000
6000
FFC0
ENDCHAR
STARTCHAR braceleft
ENCODING 123
SWIDTH 598 0
DWIDTH 13 0
BBX 9 20 1 -4
BITMAP
0080
0F80
0800
1800
1800
1800
1800
1800
1000
E000
3000
1800
1800
1800
1800
1800
1800
1800
0E00
0780
ENDCHAR
STARTCHAR bar
ENCODING 124
SWIDTH 598 0
DWIDTH 13 0
BBX 2 20 5 -4
BITMAP
C0
C0
C0
C0
C0
C0
C0
C0
C0
C0
C0
C0
C0
C0
C0
C0
C0
C0
C0
C0
ENDCHAR
STARTCHAR braceright
ENCODING 125
SWIDTH 598 0
DWIDTH 13 0
BBX 9 20 2 -4
BITMAP
C000
F800
0C00
0400
0400
0400
0400
0400
0600
0380
0300
0600
0400
0400
0400
0600
0400
0C00
3C00
F800
ENDCHAR
STARTCHAR asciitilde
ENCODING 126
SWIDTH 598 0
DWIDTH 13 0
BBX 10 3 1 8
BITMAP
7C40
CEC0
4380
ENDCHAR
STARTCHAR nonbreakingspace
ENCODING 160
SWIDTH 598 0
DWIDTH 13 0
BBX 1 1 0 0
BITMAP
00
ENDCHAR
STARTCHAR exclamdown
ENCODING 161
SWIDTH 598 0
DWIDTH 13 0
BBX 2 16 5 0
BITMAP
C0
C0
C0
00
00
C0
C0
C0
C0
C0
C0
C0
C0
C0
C0
C0
ENDCHAR
STARTCHAR cent
ENCODING 162
SWIDTH 598 0
DWIDTH 13 0
BBX 10 17 1 -2
BITMAP
0300
0200
0200
1F80
32C0
6600
4600
C600
C600
C400
6400
6400
3DC0
1F80
0C00
0C00
0800
ENDCHAR
STARTCHAR sterling
ENCODING 163
SWIDTH 598 0
DWIDTH 13 0
BBX 10 15 1 0
BITMAP
0F80
1980
3000
3000
3000
3000
7C00
1000
1000
1000
1000
3000
3000
7E40
C7C0
ENDCHAR
STARTCHAR currency
ENCODING 164
SWIDTH 598 0
DWIDTH 13 0
BBX 8 9 2 4
BITMAP
80
FD
62
43
41
41
63
7F
81
ENDCHAR
STARTCHAR yen
ENCODING 165
SWIDTH 598 0
DWIDTH 13 0
BBX 10 15 1 0
BITMAP
C0C0
60C0
2180
3180
1B00
1B00
0E00
0C00
7FC0
7FC0
0400
7FC0
7FC0
0400
0400
ENDCHAR
STARTCHAR brokenbar
ENCODING 166
SWIDTH 598 0
DWIDTH 13 0
BBX 2 20 5 -4
BITMAP
C0
C0
C0
C0
C0
C0
C0
C0
C0
00
00
C0
C0
C0
C0
C0
C0
C0
C0
C0
ENDCHAR
STARTCHAR section
ENCODING 167
SWIDTH 598 0
DWIDTH 13 0
BBX 8 17 2 -1
BITMAP
3E
63
42
40
60
38
6E
C3
C3
E3
7E
0E
03
03
83
E7
7E
ENDCHAR
STARTCHAR dieresis
ENCODING 168
SWIDTH 598 0
DWIDTH 13 0
BBX 7 2 3 14
BITMAP
CE
CE
ENDCHAR
STARTCHAR copyright
ENCODING 169
SWIDTH 598 0
DWIDTH 13 0
BBX 11 13 1 0
BITMAP
1E00
3180
4040
9F60
B120
A020
A020
B020
9920
CE60
60C0
3F80
0400
ENDCHAR
STARTCHAR ordfeminine
ENCODING 170
SWIDTH 598 0
DWIDTH 13 0
BBX 9 11 2 4
BITMAP
3E00
6600
0300
0F00
7F00
4300
4300
7F00
3B00
0000
FF80
ENDCHAR
STARTCHAR guillemotleft
ENCODING 171
SWIDTH 598 0
DWIDTH 13 0
BBX 9 8 2 2
BITMAP
1000
3180
6300
C600
CC00
6600
3300
1980
ENDCHAR
STARTCHAR logicalnot
ENCODING 172
SWIDTH 598 0
DWIDTH 13 0
BBX 8 4 2 4
BITMAP
FF
01
01
01
ENDCHAR
STARTCHAR softhyphen
ENCODING 173
SWIDTH 598 0
DWIDTH 13 0
BBX 9 1 2 7
BITMAP
FF80
ENDCHAR
STARTCHAR registered
ENCODING 174
SWIDTH 598 0
DWIDTH 13 0
BBX 11 13 1 0
BITMAP
1E00
3180
4040
9F60
9120
9120
9E20
9220
9120
D140
60C0
3F80
0400
ENDCHAR
STARTCHAR macron
ENCODING 175
SWIDTH 598 0
DWIDTH 13 0
BBX 6 1 3 14
BITMAP
FC
ENDCHAR
STARTCHAR degree
ENCODING 176
SWIDTH 598 0
DWIDTH 13 0
BBX 7 7 3 9
BITMAP
10
7C
C4
C6
C6
6C
38
ENDCHAR
STARTCHAR plusminus
ENCODING 177
SWIDTH 598 0
DWIDTH 13 0
BBX 10 14 1 0
BITMAP
0400
0400
0400
0400
FFC0
FFC0
0400
0400
0400
0400
0000
0000
FFC0
FFC0
ENDCHAR
STARTCHAR uni00B2
ENCODING 178
SWIDTH 598 0
DWIDTH 13 0
BBX 7 10 3 6
BITMAP
10
7C
C6
06
04
0C
30
60
C0
FE
ENDCHAR
STARTCHAR uni00B3
ENCODING 179
SWIDTH 598 0
DWIDTH 13 0
BBX 7 10 3 6
BITMAP
10
7C
46
06
1C
1C
06
06
EE
38
ENDCHAR
STARTCHAR acute
ENCODING 180
SWIDTH 598 0
DWIDTH 13 0
BBX 3 4 5 13
BITMAP
20
60
60
C0
ENDCHAR
STARTCHAR micro
ENCODING 181
SWIDTH 598 0
DWIDTH 13 0
BBX 11 15 1 -4
BITMAP
C100
C100
C100
C100
C100
C100
C100
C100
C300
E3A0
BCE0
8000
8000
8000
8000
ENDCHAR
STARTCHAR paragraph
ENCODING 182
SWIDTH 598 0
DWIDTH 13 0
BBX 9 18 2 -2
BITMAP
3F80
7D80
FD80
FD80
FD80
FD80
7D80
3D80
0D80
0D80
0D80
0D80
0D80
0D80
0D80
0D80
0D80
0D80
ENDCHAR
STARTCHAR periodcentered
ENCODING 183
SWIDTH 598 0
DWIDTH 13 0
BBX 2 2 5 7
BITMAP
C0
C0
ENDCHAR
STARTCHAR cedilla
ENCODING 184
SWIDTH 598 0
DWIDTH 13 0
BBX 6 4 4 -4
BITMAP
10
38
0C
F8
ENDCHAR
STARTCHAR uni00B9
ENCODING 185
SWIDTH 598 0
DWIDTH 13 0
BBX 4 9 3 6
BITMAP
30
F0
10
10
10
10
10
10
10
ENDCHAR
STARTCHAR ordmasculine
ENCODING 186
SWIDTH 598 0
DWIDTH 13 0
BBX 9 11 2 4
BITMAP
3C00
6600
4300
4300
4300
4300
6200
3E00
1C00
0000
FF80
ENDCHAR
STARTCHAR guillemotright
ENCODING 187
SWIDTH 598 0
DWIDTH 13 0
BBX 9 8 2 2
BITMAP
0400
C600
6300
3180
1980
3300
6600
CC00
ENDCHAR
STARTCHAR onequarter
ENCODING 188
SWIDTH 598 0
DWIDTH 13 0
BBX 11 18 1 -2
BITMAP
E0C0
6080
6180
6100
6100
6300
6200
0600
0400
0C00
0840
18C0
11C0
32C0
24C0
67E0
40C0
00C0
ENDCHAR
STARTCHAR onehalf
ENCODING 189
SWIDTH 598 0
DWIDTH 13 0
BBX 11 18 1 -2
BITMAP
E0C0
6080
6180
6100
6100
6300
6200
0600
0400
0C00
09C0
1A60
1020
3060
20C0
6180
4200
03E0
ENDCHAR
STARTCHAR threequarters
ENCODING 190
SWIDTH 598 0
DWIDTH 13 0
BBX 11 19 1 -2
BITMAP
6000
D8C0
0880
1080
3980
0900
9B00
7200
0600
0400
0C00
0840
18C0
11C0
12C0
24C0
27E0
60C0
00C0
ENDCHAR
STARTCHAR questiondown
ENCODING 191
SWIDTH 598 0
DWIDTH 13 0
BBX 9 16 2 0
BITMAP
1800
1800
0800
0000
0000
1800
1800
1800
3000
6000
C000
C000
C000
C180
6300
7E00
ENDCHAR
STARTCHAR Agrave
ENCODING 192
SWIDTH 598 0
DWIDTH 13 0
BBX 11 19 1 0
BITMAP
1800
1E00
0200
0000
0800
0C00
0C00
0E00
1E00
1200
1300
3300
2180
7F80
7F80
40C0
C0C0
C040
8060
ENDCHAR
STARTCHAR Aacute
ENCODING 193
SWIDTH 598 0
DWIDTH 13 0
BBX 11 19 1 0
BITMAP
0600
0F00
1800
0000
0800
0C00
0C00
0E00
1E00
1200
1300
3300
2180
7F80
7F80
40C0
C0C0
C040
8060
ENDCHAR
STARTCHAR Acircumflex
ENCODING 194
SWIDTH 598 0
DWIDTH 13 0
BBX 11 19 1 0
BITMAP
0C00
1F00
2100
0000
0800
0C00
0C00
0E00
1E00
1200
1300
3300
2180
7F80
7F80
40C0
C0C0
C040
8060
ENDCHAR
STARTCHAR Atilde
ENCODING 195
SWIDTH 598 0
DWIDTH 13 0
BBX 11 19 1 0
BITMAP
3C80
6780
0300
0000
0800
0C00
0C00
0E00
1E00
1200
1300
3300
2180
7F80
7F80
40C0
C0C0
C040
8060
ENDCHAR
STARTCHAR Adieresis
ENCODING 196
SWIDTH 598 0
DWIDTH 13 0
BBX 11 19 1 0
BITMAP
3300
3300
0000
0000
0800
0C00
0C00
0E00
1E00
1200
1300
3300
2180
7F80
7F80
40C0
C0C0
C040
8060
ENDCHAR
STARTCHAR Aring
ENCODING 197
SWIDTH 598 0
DWIDTH 13 0
BBX 11 19 1 0
BITMAP
1E00
1200
1200
0C00
0800
0C00
0C00
0E00
1E00
1200
1300
3300
2180
7F80
7F80
40C0
C0C0
C040
8060
ENDCHAR
STARTCHAR AE
ENCODING 198
SWIDTH 598 0
DWIDTH 13 0
BBX 12 15 0 0
BITMAP
07F0
0700
0F00
0B00
0B00
1B00
13E0
13E0
3300
3F00
3F00
6300
6300
43F0
C3F0
ENDCHAR
STARTCHAR Ccedilla
ENCODING 199
SWIDTH 598 0
DWIDTH 13 0
BBX 10 19 1 -4
BITMAP
1F80
31C0
6040
6000
4000
C000
C000
C000
C000
C000
4000
6000
6040
39C0
1F80
0200
0700
0180
1F00
ENDCHAR
STARTCHAR Egrave
ENCODING 200
SWIDTH 598 0
DWIDTH 13 0
BBX 9 19 2 0
BITMAP
3000
3C00
0400
0000
FF80
8000
8000
8000
8000
8000
FF00
FF00
8000
8000
8000
8000
8000
FF80
FF80
ENDCHAR
STARTCHAR Eacute
ENCODING 201
SWIDTH 598 0
DWIDTH 13 0
BBX 9 19 2 0
BITMAP
0600
1E00
1000
0000
FF80
8000
8000
8000
8000
8000
FF00
FF00
8000
8000
8000
8000
8000
FF80
FF80
ENDCHAR
STARTCHAR Ecircumflex
ENCODING 202
SWIDTH 598 0
DWIDTH 13 0
BBX 9 19 2 0
BITMAP
1C00
3600
4200
0000
FF80
8000
8000
8000
8000
8000
FF00
FF00
8000
8000
8000
8000
8000
FF80
FF80
ENDCHAR
STARTCHAR Edieresis
ENCODING 203
SWIDTH 598 0
DWIDTH 13 0
BBX 9 19 2 0
BITMAP
6600
6700
0000
0000
FF80
8000
8000
8000
8000
8000
FF00
FF00
8000
8000
8000
8000
8000
FF80
FF80
ENDCHAR
STARTCHAR Igrave
ENCODING 204
SWIDTH 598 0
DWIDTH 13 0
BBX 8 19 2 0
BITMAP
30
3C
04
00
FF
18
18
18
18
18
18
18
18
18
18
18
18
18
FF
ENDCHAR
STARTCHAR Iacute
ENCODING 205
SWIDTH 598 0
DWIDTH 13 0
BBX 8 19 2 0
BITMAP
06
1E
10
00
FF
18
18
18
18
18
18
18
18
18
18
18
18
18
FF
ENDCHAR
STARTCHAR Icircumflex
ENCODING 206
SWIDTH 598 0
DWIDTH 13 0
BBX 8 19 2 0
BITMAP
18
3E
42
00
FF
18
18
18
18
18
18
18
18
18
18
18
18
18
FF
ENDCHAR
STARTCHAR Idieresis
ENCODING 207
SWIDTH 598 0
DWIDTH 13 0
BBX 8 19 2 0
BITMAP
66
66
00
00
FF
18
18
18
18
18
18
18
18
18
18
18
18
18
FF
ENDCHAR
STARTCHAR Eth
ENCODING 208
SWIDTH 598 0
DWIDTH 13 0
BBX 11 15 1 0
BITMAP
7F00
6380
6180
60C0
60C0
6040
F860
F860
6040
6040
60C0
60C0
6180
6300
7E00
ENDCHAR
STARTCHAR Ntilde
ENCODING 209
SWIDTH 598 0
DWIDTH 13 0
BBX 10 19 1 0
BITMAP
3C80
6780
0300
0000
C0C0
E0C0
F0C0
F0C0
D8C0
D8C0
CCC0
C4C0
C6C0
C3C0
C3C0
C1C0
C1C0
C0C0
C0C0
ENDCHAR
STARTCHAR Ograve
ENCODING 210
SWIDTH 598 0
DWIDTH 13 0
BBX 11 19 1 0
BITMAP
1800
1E00
0200
0000
1F00
3380
60C0
40C0
C040
C060
C060
C060
C060
C060
C040
40C0
60C0
3B80
1F00
ENDCHAR
STARTCHAR Oacute
ENCODING 211
SWIDTH 598 0
DWIDTH 13 0
BBX 11 19 1 0
BITMAP
0300
0F00
0800
0000
1F00
3380
60C0
40C0
C040
C060
C060
C060
C060
C060
C040
40C0
60C0
3B80
1F00
ENDCHAR
STARTCHAR Ocircumflex
ENCODING 212
SWIDTH 598 0
DWIDTH 13 0
BBX 11 19 1 0
BITMAP
0E00
1B00
2100
0000
1F00
3380
60C0
40C0
C040
C060
C060
C060
C060
C060
C040
40C0
60C0
3B80
1F00
ENDCHAR
STARTCHAR Otilde
ENCODING 213
SWIDTH 598 0
DWIDTH 13 0
BBX 11 19 1 0
BITMAP
3C80
6780
0300
0000
1F00
3380
60C0
40C0
C040
C060
C060
C060
C060
C060
C040
40C0
60C0
3B80
1F00
ENDCHAR
STARTCHAR Odieresis
ENCODING 214
SWIDTH 598 0
DWIDTH 13 0
BBX 11 19 1 0
BITMAP
3300
3380
0000
0000
1F00
3380
60C0
40C0
C040
C060
C060
C060
C060
C060
C040
40C0
60C0
3B80
1F00
ENDCHAR
STARTCHAR multiply
ENCODING 215
SWIDTH 598 0
DWIDTH 13 0
BBX 8 8 2 4
BITMAP
41
63
36
1C
1C
36
63
C1
ENDCHAR
STARTCHAR Oslash
ENCODING 216
SWIDTH 598 0
DWIDTH 13 0
BBX 11 17 1 -1
BITMAP
0040
1FC0
3380
61C0
41C0
C340
C260
C660
C460
CC60
D860
D840
70C0
60C0
7B80
5F00
C000
ENDCHAR
STARTCHAR Ugrave
ENCODING 217
SWIDTH 598 0
DWIDTH 13 0
BBX 10 19 1 0
BITMAP
1800
1E00
0200
0000
C040
C040
C040
C040
C040
C040
C040
C040
C040
C040
C040
40C0
60C0
7180
3F00
ENDCHAR
STARTCHAR Uacute
ENCODING 218
SWIDTH 598 0
DWIDTH 13 0
BBX 10 19 1 0
BITMAP
0300
0F00
0800
0000
C040
C040
C040
C040
C040
C040
C040
C040
C040
C040
C040
40C0
60C0
7180
3F00
ENDCHAR
STARTCHAR Ucircumflex
ENCODING 219
SWIDTH 598 0
DWIDTH 13 0
BBX 10 19 1 0
BITMAP
0E00
1B00
2100
0000
C040
C040
C040
C040
C040
C040
C040
C040
C040
C040
C040
40C0
60C0
7180
3F00
ENDCHAR
STARTCHAR Udieresis
ENCODING 220
SWIDTH 598 0
DWIDTH 13 0
BBX 10 19 1 0
BITMAP
3380
3380
0000
0000
C040
C040
C040
C040
C040
C040
C040
C040
C040
C040
C040
40C0
60C0
7180
3F00
ENDCHAR
STARTCHAR Yacute
ENCODING 221
SWIDTH 598 0
DWIDTH 13 0
BBX 10 19 1 0
BITMAP
0300
0F00
0800
0000
C040
60C0
6080
3180
3180
1B00
1B00
0E00
0E00
0400
0400
0400
0400
0400
0400
ENDCHAR
STARTCHAR Thorn
ENCODING 222
SWIDTH 598 0
DWIDTH 13 0
BBX 9 15 2 0
BITMAP
8000
8000
8000
FF00
8380
8180
8180
8080
8180
8380
FE00
8000
8000
8000
8000
ENDCHAR
STARTCHAR germandbls
ENCODING 223
SWIDTH 598 0
DWIDTH 13 0
BBX 9 16 2 0
BITMAP
3E00
6700
C300
8100
8100
8300
8600
9E00
8300
8180
8080
8080
8080
8180
9380
BF00
ENDCHAR
STARTCHAR agrave
ENCODING 224
SWIDTH 598 0
DWIDTH 13 0
BBX 10 17 1 0
BITMAP
0800
0C00
0600
0600
0000
0000
3F00
2180
00C0
00C0
03C0
3FC0
60C0
C0C0
C0C0
63C0
3EC0
ENDCHAR
STARTCHAR aacute
ENCODING 225
SWIDTH 598 0
DWIDTH 13 0
BBX 10 17 1 0
BITMAP
0200
0600
0600
0C00
0000
0000
3F00
2180
00C0
00C0
03C0
3FC0
60C0
C0C0
C0C0
63C0
3EC0
ENDCHAR
STARTCHAR acircumflex
ENCODING 226
SWIDTH 598 0
DWIDTH 13 0
BBX 10 17 1 0
BITMAP
0400
0E00
0B00
1100
1100
0000
3F00
2180
00C0
00C0
03C0
3FC0
60C0
C0C0
C0C0
63C0
3EC0
ENDCHAR
STARTCHAR atilde
ENCODING 227
SWIDTH 598 0
DWIDTH 13 0
BBX 10 16 1 0
BITMAP
1C00
2780
0100
0000
0000
3F00
2180
00C0
00C0
03C0
3FC0
60C0
C0C0
C0C0
63C0
3EC0
ENDCHAR
STARTCHAR adieresis
ENCODING 228
SWIDTH 598 0
DWIDTH 13 0
BBX 10 16 1 0
BITMAP
3980
3980
0000
0000
0000
3F00
2180
00C0
00C0
03C0
3FC0
60C0
C0C0
C0C0
63C0
3EC0
ENDCHAR
STARTCHAR aring
ENCODING 229
SWIDTH 598 0
DWIDTH 13 0
BBX 10 17 1 0
BITMAP
0E00
1B00
1300
0E00
0000
0000
3F00
2180
00C0
00C0
03C0
3FC0
60C0
C0C0
C0C0
63C0
3EC0
ENDCHAR
STARTCHAR ae
ENCODING 230
SWIDTH 598 0
DWIDTH 13 0
BBX 11 11 1 0
BITMAP
FBC0
8E60
0C20
0420
3FE0
7F80
C400
8400
8C00
CE20
7BE0
ENDCHAR
STARTCHAR ccedilla
ENCODING 231
SWIDTH 598 0
DWIDTH 13 0
BBX 9 15 2 -4
BITMAP
3F00
6180
C080
C000
8000
8000
C000
C000
C000
7380
3F00
0400
0E00
0300
3E00
ENDCHAR
STARTCHAR egrave
ENCODING 232
SWIDTH 598 0
DWIDTH 13 0
BBX 10 17 1 0
BITMAP
0800
0C00
0600
0600
0000
0000
1F00
3180
60C0
40C0
FFC0
FFC0
C000
4000
6000
30C0
1F80
ENDCHAR
STARTCHAR eacute
ENCODING 233
SWIDTH 598 0
DWIDTH 13 0
BBX 10 17 1 0
BITMAP
0200
0600
0600
0C00
0000
0000
1F00
3180
60C0
40C0
FFC0
FFC0
C000
4000
6000
30C0
1F80
ENDCHAR
STARTCHAR ecircumflex
ENCODING 234
SWIDTH 598 0
DWIDTH 13 0
BBX 10 17 1 0
BITMAP
0400
0E00
1A00
1300
0000
0000
1F00
3180
60C0
40C0
FFC0
FFC0
C000
4000
6000
30C0
1F80
ENDCHAR
STARTCHAR edieresis
ENCODING 235
SWIDTH 598 0
DWIDTH 13 0
BBX 10 16 1 0
BITMAP
3380
3380
0000
0000
0000
1F00
3180
60C0
40C0
FFC0
FFC0
C000
4000
6000
30C0
1F80
ENDCHAR
STARTCHAR igrave
ENCODING 236
SWIDTH 598 0
DWIDTH 13 0
BBX 7 17 3 0
BITMAP
40
60
30
30
00
00
F0
30
30
30
30
30
30
30
30
30
FE
ENDCHAR
STARTCHAR iacute
ENCODING 237
SWIDTH 598 0
DWIDTH 13 0
BBX 7 17 3 0
BITMAP
08
18
18
30
00
00
F0
30
30
30
30
30
30
30
30
30
FE
ENDCHAR
STARTCHAR icircumflex
ENCODING 238
SWIDTH 598 0
DWIDTH 13 0
BBX 7 17 3 0
BITMAP
10
30
78
CC
00
00
F0
30
30
30
30
30
30
30
30
30
FE
ENDCHAR
STARTCHAR idieresis
ENCODING 239
SWIDTH 598 0
DWIDTH 13 0
BBX 7 16 3 0
BITMAP
CE
CE
00
00
00
F0
30
30
30
30
30
30
30
30
30
FE
ENDCHAR
STARTCHAR eth
ENCODING 240
SWIDTH 598 0
DWIDTH 13 0
BBX 10 16 1 0
BITMAP
1C00
07C0
1F00
0180
0180
1FC0
31C0
60C0
40C0
C040
C040
C040
C0C0
60C0
3180
1F00
ENDCHAR
STARTCHAR ntilde
ENCODING 241
SWIDTH 598 0
DWIDTH 13 0
BBX 9 16 2 0
BITMAP
7900
CF00
0600
0000
0000
DF00
F300
C180
C180
C180
C180
C180
C180
C180
C180
C180
ENDCHAR
STARTCHAR ograve
ENCODING 242
SWIDTH 598 0
DWIDTH 13 0
BBX 10 17 1 0
BITMAP
0800
0C00
0600
0600
0000
0000
1F00
3180
60C0
C0C0
C040
C040
C040
C0C0
60C0
3180
1F00
ENDCHAR
STARTCHAR oacute
ENCODING 243
SWIDTH 598 0
DWIDTH 13 0
BBX 10 17 1 0
BITMAP
0200
0600
0600
0C00
0000
0000
1F00
3180
60C0
C0C0
C040
C040
C040
C0C0
60C0
3180
1F00
ENDCHAR
STARTCHAR ocircumflex
ENCODING 244
SWIDTH 598 0
DWIDTH 13 0
BBX 10 17 1 0
BITMAP
0400
0E00
1A00
1300
0000
0000
1F00
3180
60C0
C0C0
C040
C040
C040
C0C0
60C0
3180
1F00
ENDCHAR
STARTCHAR otilde
ENCODING 245
SWIDTH 598 0
DWIDTH 13 0
BBX 10 16 1 0
BITMAP
3C80
2780
0300
0000
0000
1F00
3180
60C0
C0C0
C040
C040
C040
C0C0
60C0
3180
1F00
ENDCHAR
STARTCHAR odieresis
ENCODING 246
SWIDTH 598 0
DWIDTH 13 0
BBX 10 16 1 0
BITMAP
3380
3380
0000
0000
0000
1F00
3180
60C0
C0C0
C040
C040
C040
C0C0
60C0
3180
1F00
ENDCHAR
STARTCHAR divide
ENCODING 247
SWIDTH 598 0
DWIDTH 13 0
BBX 9 9 2 3
BITMAP
1C00
0800
0000
0000
FF80
0000
0000
0800
1800
ENDCHAR
STARTCHAR oslash
ENCODING 248
SWIDTH 598 0
DWIDTH 13 0
BBX 10 13 1 -1
BITMAP
0080
1F80
3180
63C0
C6C0
C640
CC40
C840
D8C0
70C0
3180
3F00
6000
ENDCHAR
STARTCHAR ugrave
ENCODING 249
SWIDTH 598 0
DWIDTH 13 0
BBX 9 17 2 0
BITMAP
1000
1800
0C00
0C00
0000
0000
C180
C180
C180
C180
C180
C180
C180
C180
C380
E780
7D80
ENDCHAR
STARTCHAR uacute
ENCODING 250
SWIDTH 598 0
DWIDTH 13 0
BBX 9 17 2 0
BITMAP
0400
0C00
0C00
1800
0000
0000
C180
C180
C180
C180
C180
C180
C180
C180
C380
E780
7D80
ENDCHAR
STARTCHAR ucircumflex
ENCODING 251
SWIDTH 598 0
DWIDTH 13 0
BBX 9 17 2 0
BITMAP
0800
1C00
3400
2600
0000
0000
C180
C180
C180
C180
C180
C180
C180
C180
C380
E780
7D80
ENDCHAR
STARTCHAR udieresis
ENCODING 252
SWIDTH 598 0
DWIDTH 13 0
BBX 9 16 2 0
BITMAP
6700
6700
0000
0000
0000
C180
C180
C180
C180
C180
C180
C180
C180
C380
E780
7D80
ENDCHAR
STARTCHAR yacute
ENCODING 253
SWIDTH 598 0
DWIDTH 13 0
BBX 10 21 1 -4
BITMAP
0200
0600
0600
0C00
0000
0000
4040
60C0
60C0
3080
3180
1100
1900
1B00
0E00
0E00
0600
0400
0C00
9800
F000
ENDCHAR
STARTCHAR thorn
ENCODING 254
SWIDTH 598 0
DWIDTH 13 0
BBX 9 20 2 -4
BITMAP
8000
8000
8000
8000
8000
BE00
E300
C180
C180
8080
8080
8080
C180
C180
E300
BE00
8000
8000
8000
8000
ENDCHAR
STARTCHAR ydieresis
ENCODING 255
SWIDTH 598 0
DWIDTH 13 0
BBX 10 20 1 -4
BITMAP
3380
3380
0000
0000
0000
4040
60C0
60C0
3080
3180
1100
1900
1B00
0E00
0E00
0600
0400
0C00
9800
F000
ENDCHAR
STARTCHAR Amacron
ENCODING 256
SWIDTH 585 0
DWIDTH 12 0
BBX 11 19 1 0
BITMAP
3F00
0000
0000
0000
0800
0C00
0C00
0E00
1E00
1200
1300
3300
2180
7F80
7F80
40C0
C0C0
C040
8060
ENDCHAR
STARTCHAR amacron
ENCODING 257
SWIDTH 585 0
DWIDTH 12 0
BBX 10 15 1 0
BITMAP
3F00
0000
0000
0000
3F00
2180
00C0
00C0
03C0
3FC0
60C0
C0C0
C0C0
63C0
3EC0
ENDCHAR
STARTCHAR Abreve
ENCODING 258
SWIDTH 598 0
DWIDTH 13 0
BBX 11 19 1 0
BITMAP
2100
3300
1E00
0000
0800
0C00
0C00
0E00
1E00
1200
1300
3300
2180
7F80
7F80
40C0
C0C0
C040
8060
ENDCHAR
STARTCHAR abreve
ENCODING 259
SWIDTH 598 0
DWIDTH 13 0
BBX 10 16 1 0
BITMAP
0080
3180
1F00
0000
0000
3F00
2180
00C0
00C0
03C0
3FC0
60C0
C0C0
C0C0
63C0
3EC0
ENDCHAR
STARTCHAR Aogonek
ENCODING 260
SWIDTH 598 0
DWIDTH 13 0
BBX 11 19 1 -4
BITMAP
0800
0C00
0C00
0E00
1E00
1200
1300
3300
2180
7F80
7F80
40C0
C0C0
C040
8060
0040
00C0
0180
00E0
ENDCHAR
STARTCHAR aogonek
ENCODING 261
SWIDTH 598 0
DWIDTH 13 0
BBX 10 15 1 -4
BITMAP
3F00
2180
00C0
00C0
03C0
3FC0
60C0
C0C0
C0C0
63C0
3EC0
0080
0100
0300
03C0
ENDCHAR
STARTCHAR Cacute
ENCODING 262
SWIDTH 598 0
DWIDTH 13 0
BBX 10 19 1 0
BITMAP
0600
0F00
1800
0000
1F80
31C0
6040
6000
4000
C000
C000
C000
C000
C000
4000
6000
6040
39C0
1F80
ENDCHAR
STARTCHAR cacute
ENCODING 263
SWIDTH 598 0
DWIDTH 13 0
BBX 9 17 2 0
BITMAP
0400
0C00
0C00
1800
0000
0000
3F00
6180
C080
C000
8000
8000
C000
C000
C000
7380
3F00
ENDCHAR
STARTCHAR Ccircumflex
ENCODING 264
SWIDTH 585 0
DWIDTH 12 0
BBX 10 19 1 0
BITMAP
0E00
1B00
3100
0000
1F80
31C0
6040
6000
4000
C000
C000
C000
C000
C000
4000
6000
6040
39C0
1F80
ENDCHAR
STARTCHAR ccircumflex
ENCODING 265
SWIDTH 585 0
DWIDTH 12 0
BBX 9 17 2 0
BITMAP
0800
1C00
3400
2600
0000
0000
3F00
6180
C080
C000
8000
8000
C000
C000
C000
7380
3F00
ENDCHAR
STARTCHAR Cdotaccent
ENCODING 266
SWIDTH 585 0
DWIDTH 12 0
BBX 10 19 1 0
BITMAP
0C00
0E00
0400
0000
1F80
31C0
6040
6000
4000
C000
C000
C000
C000
C000
4000
6000
6040
39C0
1F80
ENDCHAR
STARTCHAR cdotaccent
ENCODING 267
SWIDTH 585 0
DWIDTH 12 0
BBX 9 16 2 0
BITMAP
1800
1C00
0800
0000
0000
3F00
6180
C080
C000
8000
8000
C000
C000
C000
7380
3F00
ENDCHAR
STARTCHAR Ccaron
ENCODING 268
SWIDTH 598 0
DWIDTH 13 0
BBX 10 19 1 0
BITMAP
1180
0F00
0600
0000
1F80
31C0
6040
6000
4000
C000
C000
C000
C000
C000
4000
6000
6040
39C0
1F80
ENDCHAR
STARTCHAR ccaron
ENCODING 269
SWIDTH 598 0
DWIDTH 13 0
BBX 9 17 2 0
BITMAP
2200
3600
1400
1800
0000
0000
3F00
6180
C080
C000
8000
8000
C000
C000
C000
7380
3F00
ENDCHAR
STARTCHAR Dcaron
ENCODING 270
SWIDTH 598 0
DWIDTH 13 0
BBX 9 19 2 0
BITMAP
4600
3C00
1800
0000
FC00
8700
8300
8180
8180
8080
8080
8080
8080
8080
8180
8180
8300
8E00
FC00
ENDCHAR
STARTCHAR dcaron
ENCODING 271
SWIDTH 598 0
DWIDTH 13 0
BBX 13 16 0 0
BITMAP
00B0
00B8
0090
0090
00A0
3E80
6380
6180
C180
C080
C080
C080
C180
6180
7280
3E80
ENDCHAR
STARTCHAR Dcroat
ENCODING 272
SWIDTH 598 0
DWIDTH 13 0
BBX 11 15 1 0
BITMAP
7F00
6380
6180
60C0
60C0
6040
F860
F860
6040
6040
60C0
60C0
6180
6300
7E00
ENDCHAR
STARTCHAR dcroat
ENCODING 273
SWIDTH 598 0
DWIDTH 13 0
BBX 11 16 1 0
BITMAP
00C0
03E0
03E0
00C0
00C0
3EC0
61C0
41C0
C0C0
C0C0
C0C0
C0C0
C0C0
61C0
73C0
3EC0
ENDCHAR
STARTCHAR Emacron
ENCODING 274
SWIDTH 585 0
DWIDTH 12 0
BBX 9 19 2 0
BITMAP
7E00
0000
0000
0000
FF80
8000
8000
8000
8000
8000
FF00
FF00
8000
8000
8000
8000
8000
FF80
FF80
ENDCHAR
STARTCHAR emacron
ENCODING 275
SWIDTH 585 0
DWIDTH 12 0
BBX 10 15 1 0
BITMAP
3F00
0000
0000
0000
1F00
3180
60C0
40C0
FFC0
FFC0
C000
4000
6000
30C0
1F80
ENDCHAR
STARTCHAR Ebreve
ENCODING 276
SWIDTH 585 0
DWIDTH 12 0
BBX 9 19 2 0
BITMAP
4000
6600
3C00
0000
FF80
8000
8000
8000
8000
8000
FF00
FF00
8000
8000
8000
8000
8000
FF80
FF80
ENDCHAR
STARTCHAR ebreve
ENCODING 277
SWIDTH 585 0
DWIDTH 12 0
BBX 10 16 1 0
BITMAP
0080
3180
1F00
0000
0000
1F00
3180
60C0
40C0
FFC0
FFC0
C000
4000
6000
30C0
1F80
ENDCHAR
STARTCHAR Edotaccent
ENCODING 278
SWIDTH 585 0
DWIDTH 12 0
BBX 9 19 2 0
BITMAP
1800
1C00
0800
0000
FF80
8000
8000
8000
8000
8000
FF00
FF00
8000
8000
8000
8000
8000
FF80
FF80
ENDCHAR
STARTCHAR edotaccent
ENCODING 279
SWIDTH 585 0
DWIDTH 12 0
BBX 10 16 1 0
BITMAP
0C00
0E00
0400
0000
0000
1F00
3180
60C0
40C0
FFC0
FFC0
C000
4000
6000
30C0
1F80
ENDCHAR
STARTCHAR Eogonek
ENCODING 280
SWIDTH 598 0
DWIDTH 13 0
BBX 9 19 2 -4
BITMAP
FF80
8000
8000
8000
8000
8000
FF00
FF00
8000
8000
8000
8000
8000
FF80
FF80
0100
0200
0600
0780
ENDCHAR
STARTCHAR eogonek
ENCODING 281
SWIDTH 598 0
DWIDTH 13 0
BBX 10 15 1 -4
BITMAP
1F00
3180
60C0
40C0
FFC0
FFC0
C000
4000
6000
31C0
1F80
0100
0200
0200
03C0
ENDCHAR
STARTCHAR Ecaron
ENCODING 282
SWIDTH 598 0
DWIDTH 13 0
BBX 9 19 2 0
BITMAP
6300
3E00
1800
0000
FF80
8000
8000
8000
8000
8000
FF00
FF00
8000
8000
8000
8000
8000
FF80
FF80
ENDCHAR
STARTCHAR ecaron
ENCODING 283
SWIDTH 598 0
DWIDTH 13 0
BBX 10 17 1 0
BITMAP
1100
1B00
0A00
0C00
0000
0000
1F00
3180
60C0
40C0
FFC0
FFC0
C000
4000
6000
30C0
1F80
ENDCHAR
STARTCHAR Gcircumflex
ENCODING 284
SWIDTH 585 0
DWIDTH 12 0
BBX 10 19 1 0
BITMAP
0E00
1B00
3100
0000
1F80
31C0
6040
4000
C000
C000
C000
C000
C3C0
C040
C040
6040
6040
38C0
1F80
ENDCHAR
STARTCHAR gcircumflex
ENCODING 285
SWIDTH 585 0
DWIDTH 12 0
BBX 11 21 1 -4
BITMAP
0400
0E00
1A00
1300
0000
0000
3EE0
6300
4180
4180
6180
7300
3E00
6000
6000
7F80
6FC0
C040
C040
E1C0
7F00
ENDCHAR
STARTCHAR Gbreve
ENCODING 286
SWIDTH 598 0
DWIDTH 13 0
BBX 10 19 1 0
BITMAP
2080
3F00
0E00
0000
1F80
31C0
6040
4000
C000
C000
C000
C000
C3C0
C040
C040
6040
6040
38C0
1F80
ENDCHAR
STARTCHAR gbreve
ENCODING 287
SWIDTH 598 0
DWIDTH 13 0
BBX 11 20 1 -4
BITMAP
0080
3180
1F00
0000
0000
3EE0
6300
4180
4180
6180
7300
3E00
6000
6000
7F80
6FC0
C040
C040
E1C0
7F00
ENDCHAR
STARTCHAR Gdotaccent
ENCODING 288
SWIDTH 585 0
DWIDTH 12 0
BBX 10 19 1 0
BITMAP
0C00
0E00
0400
0000
1F80
31C0
6040
4000
C000
C000
C000
C000
C3C0
C040
C040
6040
6040
38C0
1F80
ENDCHAR
STARTCHAR gdotaccent
ENCODING 289
SWIDTH 585 0
DWIDTH 12 0
BBX 11 20 1 -4
BITMAP
0C00
0E00
0400
0000
0000
3EE0
6300
4180
4180
6180
7300
3E00
6000
6000
7F80
6FC0
C040
C040
E1C0
7F00
ENDCHAR
STARTCHAR Gcommaaccent
ENCODING 290
SWIDTH 585 0
DWIDTH 12 0
BBX 10 18 1 -3
BITMAP
1F80
31C0
6040
4000
C000
C000
C000
C000
C3C0
C040
C040
6040
6040
38C0
1F80
0C00
0C00
0C00
ENDCHAR
STARTCHAR gcommaaccent
ENCODING 291
SWIDTH 585 0
DWIDTH 12 0
BBX 11 19 1 -4
BITMAP
0400
0C00
0C00
0400
3EE0
6300
4180
4180
6180
7300
3E00
6000
6000
7F80
6FC0
C040
C040
E1C0
7F00
ENDCHAR
STARTCHAR Hcircumflex
ENCODING 292
SWIDTH 585 0
DWIDTH 12 0
BBX 9 19 2 0
BITMAP
1C00
3600
6200
0000
8180
8180
8180
8180
8180
8180
FF80
FF80
8180
8180
8180
8180
8180
8180
8180
ENDCHAR
STARTCHAR hcircumflex
ENCODING 293
SWIDTH 585 0
DWIDTH 12 0
BBX 9 19 2 0
BITMAP
1C00
3600
6200
C000
C000
C000
C000
C000
DF00
F300
C180
C180
C180
C180
C180
C180
C180
C180
C180
ENDCHAR
STARTCHAR Hbar
ENCODING 294
SWIDTH 585 0
DWIDTH 12 0
BBX 11 15 1 0
BITMAP
C0C0
C0C0
FFE0
C0C0
C0C0
C0C0
C0C0
FFC0
C0C0
C0C0
C0C0
C0C0
C0C0
C0C0
C0C0
ENDCHAR
STARTCHAR hbar
ENCODING 295
SWIDTH 585 0
DWIDTH 12 0
BBX 10 16 1 0
BITMAP
6000
6000
FC00
6000
6000
6780
6D80
70C0
60C0
60C0
60C0
60C0
60C0
60C0
60C0
60C0
ENDCHAR
STARTCHAR Itilde
ENCODING 296
SWIDTH 585 0
DWIDTH 12 0
BBX 8 19 2 0
BITMAP
79
CF
06
00
FF
18
18
18
18
18
18
18
18
18
18
18
18
18
FF
ENDCHAR
STARTCHAR itilde
ENCODING 297
SWIDTH 585 0
DWIDTH 12 0
BBX 7 16 3 0
BITMAP
70
9E
04
00
00
F0
30
30
30
30
30
30
30
30
30
FE
ENDCHAR
STARTCHAR Imacron
ENCODING 298
SWIDTH 585 0
DWIDTH 12 0
BBX 8 19 2 0
BITMAP
7E
00
00
00
FF
18
18
18
18
18
18
18
18
18
18
18
18
18
FF
ENDCHAR
STARTCHAR imacron
ENCODING 299
SWIDTH 585 0
DWIDTH 12 0
BBX 7 15 3 0
BITMAP
FC
00
00
00
F0
30
30
30
30
30
30
30
30
30
FE
ENDCHAR
STARTCHAR Ibreve
ENCODING 300
SWIDTH 585 0
DWIDTH 12 0
BBX 8 19 2 0
BITMAP
40
66
3C
00
FF
18
18
18
18
18
18
18
18
18
18
18
18
18
FF
ENDCHAR
STARTCHAR ibreve
ENCODING 301
SWIDTH 585 0
DWIDTH 12 0
BBX 7 16 3 0
BITMAP
02
C6
7C
00
00
F0
30
30
30
30
30
30
30
30
30
FE
ENDCHAR
STARTCHAR Iogonek
ENCODING 302
SWIDTH 585 0
DWIDTH 12 0
BBX 8 19 2 -4
BITMAP
FF
18
18
18
18
18
18
18
18
18
18
18
18
18
FF
18
10
30
3C
ENDCHAR
STARTCHAR iogonek
ENCODING 303
SWIDTH 585 0
DWIDTH 12 0
BBX 7 20 3 -4
BITMAP
30
38
10
00
00
F0
30
30
30
30
30
30
30
30
30
FE
30
20
60
78
ENDCHAR
STARTCHAR Idotaccent
ENCODING 304
SWIDTH 598 0
DWIDTH 13 0
BBX 8 19 2 0
BITMAP
18
18
00
00
FF
18
18
18
18
18
18
18
18
18
18
18
18
18
FF
ENDCHAR
STARTCHAR dotlessi
ENCODING 305
SWIDTH 598 0
DWIDTH 13 0
BBX 7 11 3 0
BITMAP
F0
30
30
30
30
30
30
30
30
30
FE
ENDCHAR
STARTCHAR IJ
ENCODING 306
SWIDTH 585 0
DWIDTH 12 0
BBX 11 19 1 -4
BITMAP
FFE0
FFE0
60C0
60C0
60C0
60C0
60C0
60C0
60C0
60C0
60C0
60C0
60C0
60C0
F8C0
0080
2180
3B80
0E00
ENDCHAR
STARTCHAR ij
ENCODING 307
SWIDTH 585 0
DWIDTH 12 0
BBX 10 20 1 -4
BITMAP
1080
30C0
30C0
0000
0000
FFC0
FFC0
30C0
30C0
30C0
30C0
30C0
30C0
30C0
30C0
FCC0
00C0
0080
3B80
1F00
ENDCHAR
STARTCHAR Jcircumflex
ENCODING 308
SWIDTH 585 0
DWIDTH 12 0
BBX 10 19 1 0
BITMAP
0E00
1B00
3100
0000
1FC0
0300
0300
0300
0300
0300
0300
0300
0300
0300
0300
0300
4300
E600
7C00
ENDCHAR
STARTCHAR jcircumflex
ENCODING 309
SWIDTH 585 0
DWIDTH 12 0
BBX 7 21 2 -4
BITMAP
08
1C
34
26
00
00
7E
06
06
06
06
06
06
06
06
06
06
06
86
CC
F8
ENDCHAR
STARTCHAR Kcommaaccent
ENCODING 310
SWIDTH 585 0
DWIDTH 12 0
BBX 10 18 1 -3
BITMAP
C0C0
C180
C300
C600
CC00
D800
F800
F800
CC00
C600
C600
C300
C180
C1C0
C0C0
0C00
0C00
0C00
ENDCHAR
STARTCHAR kcommaaccent
ENCODING 311
SWIDTH 585 0
DWIDTH 12 0
BBX 9 19 2 -3
BITMAP
C000
C000
C000
C000
C000
C380
C600
CC00
D800
F800
F800
CC00
C600
C300
C380
C180
1800
1800
1800
ENDCHAR
STARTCHAR kgreenlandic
ENCODING 312
SWIDTH 598 0
DWIDTH 13 0
BBX 9 11 2 0
BITMAP
C380
C600
CC00
D800
F800
F800
CC00
C600
C300
C380
C180
ENDCHAR
STARTCHAR Lacute
ENCODING 313
SWIDTH 598 0
DWIDTH 13 0
BBX 9 19 2 0
BITMAP
0C00
1E00
3000
0000
C000
C000
C000
C000
C000
C000
C000
C000
C000
C000
C000
C000
C000
C000
FF80
ENDCHAR
STARTCHAR lacute
ENCODING 314
SWIDTH 598 0
DWIDTH 13 0
BBX 8 20 2 0
BITMAP
0C
1C
30
00
F8
18
18
18
18
18
18
18
18
18
18
18
18
18
18
FF
ENDCHAR
STARTCHAR Lcommaaccent
ENCODING 315
SWIDTH 585 0
DWIDTH 12 0
BBX 9 18 2 -3
BITMAP
C000
C000
C000
C000
C000
C000
C000
C000
C000
C000
C000
C000
C000
C000
FF80
1800
1800
1800
ENDCHAR
STARTCHAR lcommaaccent
ENCODING 316
SWIDTH 585 0
DWIDTH 12 0
BBX 8 19 2 -3
BITMAP
F8
18
18
18
18
18
18
18
18
18
18
18
18
18
18
FF
18
18
18
ENDCHAR
STARTCHAR Lcaron
ENCODING 317
SWIDTH 598 0
DWIDTH 13 0
BBX 9 15 2 0
BITMAP
C300
C300
C100
C300
C200
C000
C000
C000
C000
C000
C000
C000
C000
C000
FF80
ENDCHAR
STARTCHAR lcaron
ENCODING 318
SWIDTH 598 0
DWIDTH 13 0
BBX 10 16 2 0
BITMAP
F9C0
18C0
1880
1880
1900
1800
1800
1800
1800
1800
1800
1800
1800
1800
1800
FF00
ENDCHAR
STARTCHAR Ldot
ENCODING 319
SWIDTH 585 0
DWIDTH 12 0
BBX 9 15 2 0
BITMAP
C000
C000
C000
C000
C000
C000
C600
C600
C000
C000
C000
C000
C000
C000
FF80
ENDCHAR
STARTCHAR ldot
ENCODING 320
SWIDTH 585 0
DWIDTH 12 0
BBX 10 16 1 0
BITMAP
F800
1800
1800
1800
1800
1800
1800
18C0
18C0
1800
1800
1800
1800
1800
1800
FF00
ENDCHAR
STARTCHAR Lslash
ENCODING 321
SWIDTH 598 0
DWIDTH 13 0
BBX 10 15 1 0
BITMAP
6000
6000
6000
6000
6000
6000
6E00
7C00
E000
6000
6000
6000
6000
6000
7FC0
ENDCHAR
STARTCHAR lslash
ENCODING 322
SWIDTH 598 0
DWIDTH 13 0
BBX 8 16 2 0
BITMAP
F8
18
18
18
18
18
18
1E
7C
78
18
18
18
18
18
FF
ENDCHAR
STARTCHAR Nacute
ENCODING 323
SWIDTH 598 0
DWIDTH 13 0
BBX 10 19 1 0
BITMAP
0600
0F00
1800
0000
C0C0
E0C0
F0C0
F0C0
D8C0
D8C0
CCC0
C4C0
C6C0
C3C0
C3C0
C1C0
C1C0
C0C0
C0C0
ENDCHAR
STARTCHAR nacute
ENCODING 324
SWIDTH 598 0
DWIDTH 13 0
BBX 9 17 2 0
BITMAP
0400
0C00
0C00
1800
0000
0000
DF00
F300
C180
C180
C180
C180
C180
C180
C180
C180
C180
ENDCHAR
STARTCHAR Ncommaaccent
ENCODING 325
SWIDTH 585 0
DWIDTH 12 0
BBX 10 18 1 -3
BITMAP
C0C0
E0C0
F0C0
F0C0
D8C0
D8C0
CCC0
C4C0
C6C0
C3C0
C3C0
C1C0
C1C0
C0C0
C0C0
0C00
0C00
0C00
ENDCHAR
STARTCHAR ncommaaccent
ENCODING 326
SWIDTH 585 0
DWIDTH 12 0
BBX 9 14 2 -3
BITMAP
DF00
F300
C180
C180
C180
C180
C180
C180
C180
C180
C180
1800
1800
1800
ENDCHAR
STARTCHAR Ncaron
ENCODING 327
SWIDTH 598 0
DWIDTH 13 0
BBX 10 19 1 0
BITMAP
3180
1F00
0C00
0000
C0C0
E0C0
F0C0
F0C0
D8C0
D8C0
CCC0
C4C0
C6C0
C3C0
C3C0
C1C0
C1C0
C0C0
C0C0
ENDCHAR
STARTCHAR ncaron
ENCODING 328
SWIDTH 598 0
DWIDTH 13 0
BBX 9 17 2 0
BITMAP
2200
3600
1400
1800
0000
0000
DF00
F300
C180
C180
C180
C180
C180
C180
C180
C180
C180
ENDCHAR
STARTCHAR napostrophe
ENCODING 329
SWIDTH 585 0
DWIDTH 12 0
BBX 11 15 1 0
BITMAP
E000
E000
6000
4000
D380
94C0
1860
1860
1060
1060
1060
1060
1060
1060
1060
ENDCHAR
STARTCHAR Eng
ENCODING 330
SWIDTH 598 0
DWIDTH 13 0
BBX 10 15 1 0
BITMAP
DF80
F1C0
E0C0
C0C0
C0C0
C0C0
C0C0
C0C0
C0C0
C0C0
C0C0
C0C0
C0C0
C5C0
CF80
ENDCHAR
STARTCHAR eng
ENCODING 331
SWIDTH 598 0
DWIDTH 13 0
BBX 9 15 2 -4
BITMAP
DF00
F300
C180
C180
C180
C180
C180
C180
C180
C180
C180
0180
0100
1700
3E00
ENDCHAR
STARTCHAR Omacron
ENCODING 332
SWIDTH 585 0
DWIDTH 12 0
BBX 11 19 1 0
BITMAP
3F00
0000
0000
0000
1F00
3380
60C0
40C0
C040
C060
C060
C060
C060
C060
C040
40C0
60C0
3B80
1F00
ENDCHAR
STARTCHAR omacron
ENCODING 333
SWIDTH 598 0
DWIDTH 13 0
BBX 10 15 1 0
BITMAP
3F00
0000
0000
0000
1F00
3180
60C0
C0C0
C040
C040
C040
C0C0
60C0
3180
1F00
ENDCHAR
STARTCHAR Obreve
ENCODING 334
SWIDTH 585 0
DWIDTH 12 0
BBX 11 19 1 0
BITMAP
2000
3300
1E00
0000
1F00
3380
60C0
40C0
C040
C060
C060
C060
C060
C060
C040
40C0
60C0
3B80
1F00
ENDCHAR
STARTCHAR obreve
ENCODING 335
SWIDTH 585 0
DWIDTH 12 0
BBX 10 16 1 0
BITMAP
0080
3180
1F00
0000
0000
1F00
3180
60C0
C0C0
C040
C040
C040
C0C0
60C0
3180
1F00
ENDCHAR
STARTCHAR Ohungarumlaut
ENCODING 336
SWIDTH 598 0
DWIDTH 13 0
BBX 11 19 1 0
BITMAP
0CC0
1980
3300
0000
1F00
3380
60C0
40C0
C040
C060
C060
C060
C060
C060
C040
40C0
60C0
3B80
1F00
ENDCHAR
STARTCHAR ohungarumlaut
ENCODING 337
SWIDTH 598 0
DWIDTH 13 0
BBX 10 17 1 0
BITMAP
0880
0D80
1980
3300
0000
0000
1F00
3180
60C0
C0C0
C040
C040
C040
C0C0
60C0
3180
1F00
ENDCHAR
STARTCHAR OE
ENCODING 338
SWIDTH 598 0
DWIDTH 13 0
BBX 12 15 0 0
BITMAP
3FF0
2700
6300
4300
4300
C300
C3E0
C3E0
C300
4300
4300
4300
6300
37F0
3FF0
ENDCHAR
STARTCHAR oe
ENCODING 339
SWIDTH 598 0
DWIDTH 13 0
BBX 12 11 0 0
BITMAP
3DE0
6630
4610
C610
C7F0
C7F0
C600
C600
4600
6710
3DF0
ENDCHAR
STARTCHAR Racute
ENCODING 340
SWIDTH 598 0
DWIDTH 13 0
BBX 9 19 2 0
BITMAP
0C00
1E00
3000
0000
FE00
8700
8180
8180
8180
8180
8300
FE00
8C00
8600
8600
8300
8300
8180
8180
ENDCHAR
STARTCHAR racute
ENCODING 341
SWIDTH 598 0
DWIDTH 13 0
BBX 8 17 3 0
BITMAP
08
18
18
30
00
00
9F
B1
E0
C0
80
80
80
80
80
80
80
ENDCHAR
STARTCHAR Rcommaaccent
ENCODING 342
SWIDTH 585 0
DWIDTH 12 0
BBX 9 18 2 -3
BITMAP
FE00
8700
8180
8180
8180
8180
8300
FE00
8C00
8600
8600
8300
8300
8180
8180
1800
1800
1800
ENDCHAR
STARTCHAR rcommaaccent
ENCODING 343
SWIDTH 585 0
DWIDTH 12 0
BBX 8 14 3 -3
BITMAP
9F
B1
E0
C0
80
80
80
80
80
80
80
30
30
30
ENDCHAR
STARTCHAR Rcaron
ENCODING 344
SWIDTH 598 0
DWIDTH 13 0
BBX 9 19 2 0
BITMAP
6300
3E00
1800
0000
FE00
8700
8180
8180
8180
8180
8300
FE00
8C00
8600
8600
8300
8300
8180
8180
ENDCHAR
STARTCHAR rcaron
ENCODING 345
SWIDTH 598 0
DWIDTH 13 0
BBX 8 17 3 0
BITMAP
44
6C
28
30
00
00
9F
B1
E0
C0
80
80
80
80
80
80
80
ENDCHAR
STARTCHAR Sacute
ENCODING 346
SWIDTH 598 0
DWIDTH 13 0
BBX 9 19 2 0
BITMAP
0C00
1E00
3000
0000
3E00
6380
C100
C000
C000
6000
7800
1E00
0300
0180
0080
0080
8180
E300
7E00
ENDCHAR
STARTCHAR sacute
ENCODING 347
SWIDTH 598 0
DWIDTH 13 0
BBX 9 17 2 0
BITMAP
0400
0C00
0C00
1800
0000
0000
3F00
6380
C000
E000
7800
1F00
0380
0180
8180
E300
7E00
ENDCHAR
STARTCHAR Scircumflex
ENCODING 348
SWIDTH 585 0
DWIDTH 12 0
BBX 9 19 2 0
BITMAP
1C00
3600
6200
0000
3E00
6380
C100
C000
C000
6000
7800
1E00
0300
0180
0080
0080
8180
E300
7E00
ENDCHAR
STARTCHAR scircumflex
ENCODING 349
SWIDTH 585 0
DWIDTH 12 0
BBX 9 17 2 0
BITMAP
0800
1C00
3400
2600
0000
0000
3F00
6380
C000
E000
7800
1F00
0380
0180
8180
E300
7E00
ENDCHAR
STARTCHAR Scedilla
ENCODING 350
SWIDTH 598 0
DWIDTH 13 0
BBX 9 19 2 -4
BITMAP
3E00
6380
C100
C000
C000
6000
7800
1E00
0300
0180
0080
0080
8180
E300
7E00
0800
0C00
0600
7C00
ENDCHAR
STARTCHAR scedilla
ENCODING 351
SWIDTH 598 0
DWIDTH 13 0
BBX 9 15 2 -4
BITMAP
3F00
6380
C000
E000
7800
1F00
0380
0180
8180
E300
7E00
0800
0C00
0600
3E00
ENDCHAR
STARTCHAR Scaron
ENCODING 352
SWIDTH 598 0
DWIDTH 13 0
BBX 9 19 2 0
BITMAP
6300
3E00
0C00
0000
3E00
6380
C100
C000
C000
6000
7800
1E00
0300
0180
0080
0080
8180
E300
7E00
ENDCHAR
STARTCHAR scaron
ENCODING 353
SWIDTH 598 0
DWIDTH 13 0
BBX 9 17 2 0
BITMAP
2200
3600
1400
1800
0000
0000
3F00
6380
C000
E000
7800
1F00
0380
0180
8180
E300
7E00
ENDCHAR
STARTCHAR Tcedilla
ENCODING 354
SWIDTH 598 0
DWIDTH 13 0
BBX 10 19 1 -4
BITMAP
FFC0
0C00
0C00
0C00
0C00
0C00
0C00
0C00
0C00
0C00
0C00
0C00
0C00
0C00
0C00
0400
0E00
0300
3E00
ENDCHAR
STARTCHAR tcedilla
ENCODING 355
SWIDTH 598 0
DWIDTH 13 0
BBX 9 18 2 -4
BITMAP
1000
1000
1000
FF00
3000
3000
3000
3000
3000
3000
3000
3000
1980
1F00
0400
0600
0100
1F00
ENDCHAR
STARTCHAR Tcaron
ENCODING 356
SWIDTH 598 0
DWIDTH 13 0
BBX 10 19 1 0
BITMAP
3180
1F00
0C00
0000
FFC0
0C00
0C00
0C00
0C00
0C00
0C00
0C00
0C00
0C00
0C00
0C00
0C00
0C00
0C00
ENDCHAR
STARTCHAR tcaron
ENCODING 357
SWIDTH 598 0
DWIDTH 13 0
BBX 11 17 1 0
BITMAP
0060
0060
0060
1840
1880
1800
FF00
1800
1800
1000
1000
1000
1000
1000
1800
1D80
0F80
ENDCHAR
STARTCHAR Tbar
ENCODING 358
SWIDTH 585 0
DWIDTH 12 0
BBX 10 15 1 0
BITMAP
FFC0
FFC0
0C00
0C00
0C00
0C00
7F80
7F80
0C00
0C00
0C00
0C00
0C00
0C00
0C00
ENDCHAR
STARTCHAR tbar
ENCODING 359
SWIDTH 585 0
DWIDTH 12 0
BBX 9 14 2 0
BITMAP
1000
1000
1000
FF00
FF00
3000
3000
FE00
FE00
3000
3000
3000
3980
1F00
ENDCHAR
STARTCHAR Utilde
ENCODING 360
SWIDTH 585 0
DWIDTH 12 0
BBX 10 19 1 0
BITMAP
3C80
6780
0300
0000
C040
C040
C040
C040
C040
C040
C040
C040
C040
C040
C040
40C0
60C0
7180
3F00
ENDCHAR
STARTCHAR utilde
ENCODING 361
SWIDTH 585 0
DWIDTH 12 0
BBX 9 16 2 0
BITMAP
3800
4F00
0200
0000
0000
C180
C180
C180
C180
C180
C180
C180
C180
C380
E780
7D80
ENDCHAR
STARTCHAR Umacron
ENCODING 362
SWIDTH 585 0
DWIDTH 12 0
BBX 10 19 1 0
BITMAP
3F00
0000
0000
0000
C040
C040
C040
C040
C040
C040
C040
C040
C040
C040
C040
40C0
60C0
7180
3F00
ENDCHAR
STARTCHAR umacron
ENCODING 363
SWIDTH 585 0
DWIDTH 12 0
BBX 9 15 2 0
BITMAP
7E00
0000
0000
0000
C180
C180
C180
C180
C180
C180
C180
C180
C380
E780
7D80
ENDCHAR
STARTCHAR Ubreve
ENCODING 364
SWIDTH 585 0
DWIDTH 12 0
BBX 10 19 1 0
BITMAP
2000
3300
1E00
0000
C040
C040
C040
C040
C040
C040
C040
C040
C040
C040
C040
40C0
60C0
7180
3F00
ENDCHAR
STARTCHAR ubreve
ENCODING 365
SWIDTH 585 0
DWIDTH 12 0
BBX 9 16 2 0
BITMAP
0100
6300
3E00
0000
0000
C180
C180
C180
C180
C180
C180
C180
C180
C380
E780
7D80
ENDCHAR
STARTCHAR Uring
ENCODING 366
SWIDTH 598 0
DWIDTH 13 0
BBX 10 19 1 0
BITMAP
0E00
1300
1A00
0E00
C040
C040
C040
C040
C040
C040
C040
C040
C040
C040
C040
40C0
60C0
7180
3F00
ENDCHAR
STARTCHAR uring
ENCODING 367
SWIDTH 598 0
DWIDTH 13 0
BBX 9 17 2 0
BITMAP
1C00
3600
2600
1C00
0000
0000
C180
C180
C180
C180
C180
C180
C180
C180
C380
E780
7D80
ENDCHAR
STARTCHAR Uhungarumlaut
ENCODING 368
SWIDTH 598 0
DWIDTH 13 0
BBX 10 19 1 0
BITMAP
0CC0
1980
3300
0000
C040
C040
C040
C040
C040
C040
C040
C040
C040
C040
C040
40C0
60C0
7180
3F00
ENDCHAR
STARTCHAR uhungarumlaut
ENCODING 369
SWIDTH 598 0
DWIDTH 13 0
BBX 9 17 2 0
BITMAP
1100
1B00
3300
6600
0000
0000
C180
C180
C180
C180
C180
C180
C180
C180
C380
E780
7D80
ENDCHAR
STARTCHAR Uogonek
ENCODING 370
SWIDTH 585 0
DWIDTH 12 0
BBX 10 19 1 -4
BITMAP
C0C0
C0C0
C0C0
C0C0
C0C0
C0C0
C0C0
C0C0
C0C0
C0C0
C0C0
C0C0
60C0
7180
3F00
0600
0C00
0800
0F00
ENDCHAR
STARTCHAR uogonek
ENCODING 371
SWIDTH 585 0
DWIDTH 12 0
BBX 9 15 2 -4
BITMAP
C180
C180
C180
C180
C180
C180
C180
C180
C380
E780
7D80
0100
0200
0600
0380
ENDCHAR
STARTCHAR Wcircumflex
ENCODING 372
SWIDTH 585 0
DWIDTH 12 0
BBX 11 19 1 0
BITMAP
0C00
1F00
2100
0000
8020
8460
C460
C460
CE40
4E40
4A40
4B40
73C0
71C0
7180
7180
2180
2080
2080
ENDCHAR
STARTCHAR wcircumflex
ENCODING 373
SWIDTH 585 0
DWIDTH 12 0
BBX 11 17 1 0
BITMAP
0400
0E00
1A00
1300
0000
0000
8060
8460
CC60
CE40
4A40
4A40
5B40
73C0
71C0
3180
3180
ENDCHAR
STARTCHAR Ycircumflex
ENCODING 374
SWIDTH 585 0
DWIDTH 12 0
BBX 10 19 1 0
BITMAP
0C00
1F00
2100
0000
C040
60C0
6080
3180
3180
1B00
1B00
0E00
0E00
0400
0400
0400
0400
0400
0400
ENDCHAR
STARTCHAR ycircumflex
ENCODING 375
SWIDTH 585 0
DWIDTH 12 0
BBX 10 21 1 -4
BITMAP
0400
0E00
1A00
1300
0000
0000
4040
60C0
60C0
3080
3180
1100
1900
1B00
0E00
0E00
0600
0400
0C00
9800
F000
ENDCHAR
STARTCHAR Ydieresis
ENCODING 376
SWIDTH 598 0
DWIDTH 13 0
BBX 10 19 1 0
BITMAP
3300
3380
0000
0000
C040
60C0
6080
3180
3180
1B00
1B00
0E00
0E00
0400
0400
0400
0400
0400
0400
ENDCHAR
STARTCHAR Zacute
ENCODING 377
SWIDTH 598 0
DWIDTH 13 0
BBX 10 19 1 0
BITMAP
0600
0F00
1800
0000
7FC0
00C0
0180
0180
0300
0200
0600
0C00
0C00
1800
3000
3000
6000
6000
FFC0
ENDCHAR
STARTCHAR zacute
ENCODING 378
SWIDTH 598 0
DWIDTH 13 0
BBX 10 17 1 0
BITMAP
0200
0600
0600
0C00
0000
0000
7FC0
0180
0300
0300
0600
0C00
1800
3000
3000
6000
FFC0
ENDCHAR
STARTCHAR Zdotaccent
ENCODING 379
SWIDTH 598 0
DWIDTH 13 0
BBX 10 19 1 0
BITMAP
0C00
0E00
0000
0000
7FC0
00C0
0180
0180
0300
0200
0600
0C00
0C00
1800
3000
3000
6000
6000
FFC0
ENDCHAR
STARTCHAR zdot
ENCODING 380
SWIDTH 598 0
DWIDTH 13 0
BBX 10 16 1 0
BITMAP
0C00
0E00
0400
0000
0000
7FC0
0180
0300
0300
0600
0C00
1800
3000
3000
6000
FFC0
ENDCHAR
STARTCHAR Zcaron
ENCODING 381
SWIDTH 598 0
DWIDTH 13 0
BBX 10 19 1 0
BITMAP
3180
1F00
0C00
0000
7FC0
00C0
0180
0180
0300
0200
0600
0C00
0C00
1800
3000
3000
6000
6000
FFC0
ENDCHAR
STARTCHAR zcaron
ENCODING 382
SWIDTH 598 0
DWIDTH 13 0
BBX 10 17 1 0
BITMAP
1100
1B00
0A00
0C00
0000
0000
7FC0
0180
0300
0300
0600
0C00
1800
3000
3000
6000
FFC0
ENDCHAR
STARTCHAR longs
ENCODING 383
SWIDTH 585 0
DWIDTH 12 0
BBX 8 16 4 0
BITMAP
3C
77
C2
C0
C0
C0
C0
C0
C0
C0
C0
C0
C0
C0
C0
C0
ENDCHAR
STARTCHAR florin
ENCODING 402
SWIDTH 598 0
DWIDTH 13 0
BBX 11 20 1 -4
BITMAP
03C0
0660
0400
0C00
0C00
0C00
0C00
7F80
0C00
0C00
0C00
0C00
0800
0800
0800
0800
1800
1800
B000
F000
ENDCHAR
STARTCHAR Aringacute
ENCODING 506
SWIDTH 585 0
DWIDTH 12 0
BBX 11 22 1 0
BITMAP
0200
0E00
1C00
0C00
1200
1200
1E00
0400
0C00
0C00
0E00
1E00
1200
1300
3300
2180
7F80
7F80
40C0
C0C0
C040
8060
ENDCHAR
STARTCHAR aringacute
ENCODING 507
SWIDTH 585 0
DWIDTH 12 0
BBX 10 19 1 0
BITMAP
0200
0F00
1800
0C00
1A00
1300
0E00
0400
3F00
2180
00C0
00C0
03C0
3FC0
60C0
C0C0
C0C0
63C0
3EC0
ENDCHAR
STARTCHAR AEacute
ENCODING 508
SWIDTH 585 0
DWIDTH 12 0
BBX 12 19 0 0
BITMAP
0100
0780
0C00
0000
07F0
0700
0F00
0B00
0B00
1B00
13E0
13E0
3300
3F00
3F00
6300
6300
43F0
C3F0
ENDCHAR
STARTCHAR aeacute
ENCODING 509
SWIDTH 585 0
DWIDTH 12 0
BBX 11 17 1 0
BITMAP
0200
0600
0600
0C00
0000
0000
FBC0
8E60
0C20
0420
3FE0
7F80
C400
8400
8C00
CE20
7BE0
ENDCHAR
STARTCHAR Oslashacute
ENCODING 510
SWIDTH 585 0
DWIDTH 12 0
BBX 11 20 1 -1
BITMAP
0200
0F00
1800
0040
1FC0
3380
61C0
41C0
C340
C260
C660
C460
CC60
D860
D840
70C0
60C0
7B80
5F00
C000
ENDCHAR
STARTCHAR oslashacute
ENCODING 511
SWIDTH 585 0
DWIDTH 12 0
BBX 10 18 1 -1
BITMAP
0200
0600
0600
0C00
0000
0080
1F80
3180
63C0
C6C0
C640
CC40
C840
D8C0
70C0
3180
3F00
6000
ENDCHAR
STARTCHAR Scommaaccent
ENCODING 536
SWIDTH 598 0
DWIDTH 13 0
BBX 9 18 2 -3
BITMAP
3E00
6380
C100
C000
C000
6000
7800
1E00
0300
0180
0080
0080
8180
E300
7E00
1800
1800
1800
ENDCHAR
STARTCHAR scommaaccent
ENCODING 537
SWIDTH 598 0
DWIDTH 13 0
BBX 9 14 2 -3
BITMAP
3F00
6380
C000
E000
7800
1F00
0380
0180
8180
E300
7E00
1800
1800
1800
ENDCHAR
STARTCHAR uni021A
ENCODING 538
SWIDTH 598 0
DWIDTH 13 0
BBX 10 18 1 -3
BITMAP
FFC0
0C00
0C00
0C00
0C00
0C00
0C00
0C00
0C00
0C00
0C00
0C00
0C00
0C00
0C00
0C00
0C00
0C00
ENDCHAR
STARTCHAR uni021B
ENCODING 539
SWIDTH 598 0
DWIDTH 13 0
BBX 9 17 2 -3
BITMAP
1000
1000
1000
FF00
3000
3000
3000
3000
3000
3000
3000
3000
1980
1F00
1800
1800
1800
ENDCHAR
STARTCHAR dotlessj
ENCODING 567
SWIDTH 598 0
DWIDTH 13 0
BBX 7 15 2 -4
BITMAP
7E
06
06
06
06
06
06
06
06
06
06
06
86
CC
F8
ENDCHAR
STARTCHAR circumflex
ENCODING 710
SWIDTH 598 0
DWIDTH 13 0
BBX 5 4 4 13
BITMAP
20
70
D0
98
ENDCHAR
STARTCHAR caron
ENCODING 711
SWIDTH 598 0
DWIDTH 13 0
BBX 5 4 4 13
BITMAP
88
D8
50
60
ENDCHAR
STARTCHAR uni02C9
ENCODING 713
SWIDTH 598 0
DWIDTH 13 0
BBX 6 1 3 14
BITMAP
FC
ENDCHAR
STARTCHAR uni02CB
ENCODING 715
SWIDTH 598 0
DWIDTH 13 0
BBX 3 4 5 13
BITMAP
80
C0
60
60
ENDCHAR
STARTCHAR breve
ENCODING 728
SWIDTH 598 0
DWIDTH 13 0
BBX 7 3 3 13
BITMAP
80
C6
7C
ENDCHAR
STARTCHAR dotaccent
ENCODING 729
SWIDTH 598 0
DWIDTH 13 0
BBX 3 3 5 13
BITMAP
C0
E0
40
ENDCHAR
STARTCHAR ring
ENCODING 730
SWIDTH 598 0
DWIDTH 13 0
BBX 5 4 4 13
BITMAP
70
D8
98
70
ENDCHAR
STARTCHAR ogonek
ENCODING 731
SWIDTH 598 0
DWIDTH 13 0
BBX 4 4 7 -4
BITMAP
60
C0
80
F0
ENDCHAR
STARTCHAR tilde
ENCODING 732
SWIDTH 598 0
DWIDTH 13 0
BBX 7 3 3 13
BITMAP
F2
9E
0C
ENDCHAR
STARTCHAR hungarumlaut
ENCODING 733
SWIDTH 598 0
DWIDTH 13 0
BBX 7 4 3 13
BITMAP
22
36
66
CC
ENDCHAR
STARTCHAR uni037E
ENCODING 894
SWIDTH 598 0
DWIDTH 13 0
BBX 4 14 4 -4
BITMAP
60
60
00
00
00
00
00
00
60
70
20
20
40
C0
ENDCHAR
STARTCHAR tonos
ENCODING 900
SWIDTH 598 0
DWIDTH 13 0
BBX 2 4 5 13
BITMAP
C0
C0
C0
80
ENDCHAR
STARTCHAR dieresistonos
ENCODING 901
SWIDTH 598 0
DWIDTH 13 0
BBX 7 6 3 11
BITMAP
18
18
10
10
CE
C4
ENDCHAR
STARTCHAR Alphatonos
ENCODING 902
SWIDTH 598 0
DWIDTH 13 0
BBX 11 17 1 0
BITMAP
6000
6000
6800
4C00
0C00
0E00
1E00
1200
1300
3300
2180
7F80
7F80
40C0
C0C0
C040
8060
ENDCHAR
STARTCHAR anoteleia
ENCODING 903
SWIDTH 598 0
DWIDTH 13 0
BBX 2 2 5 9
BITMAP
C0
C0
ENDCHAR
STARTCHAR Epsilontonos
ENCODING 904
SWIDTH 598 0
DWIDTH 13 0
BBX 12 17 -1 0
BITMAP
8000
C000
9FF0
9000
1000
1000
1000
1000
1FE0
1FE0
1000
1000
1000
1000
1000
1FF0
1FF0
ENDCHAR
STARTCHAR Etatonos
ENCODING 905
SWIDTH 598 0
DWIDTH 13 0
BBX 12 16 -1 0
BITMAP
8000
9030
9030
1030
1030
1030
1030
1FF0
1FF0
1030
1030
1030
1030
1030
1030
1030
ENDCHAR
STARTCHAR Iotatonos
ENCODING 906
SWIDTH 598 0
DWIDTH 13 0
BBX 10 16 0 0
BITMAP
8000
9FC0
8600
0600
0600
0600
0600
0600
0600
0600
0600
0600
0600
0600
0600
3FC0
ENDCHAR
STARTCHAR Omicrontonos
ENCODING 908
SWIDTH 598 0
DWIDTH 13 0
BBX 12 17 0 0
BITMAP
4000
4000
CF80
D9C0
3060
2060
6020
6030
6030
6030
6030
6030
6020
2060
3060
1DC0
0F80
ENDCHAR
STARTCHAR Upsilontonos
ENCODING 910
SWIDTH 598 0
DWIDTH 13 0
BBX 13 16 -2 0
BITMAP
C000
D808
8C18
0C10
0630
0630
0360
0360
01C0
01C0
0080
0080
0080
0080
0080
0080
ENDCHAR
STARTCHAR Omegatonos
ENCODING 911
SWIDTH 598 0
DWIDTH 13 0
BBX 11 17 0 0
BITMAP
4000
4000
4F80
D8C0
3040
2060
2060
6060
6020
6020
6020
6060
3060
3040
18C0
79E0
79E0
ENDCHAR
STARTCHAR iotadieresistonos
ENCODING 912
SWIDTH 598 0
DWIDTH 13 0
BBX 8 18 2 0
BITMAP
0C
0C
0C
08
73
63
00
F8
08
08
08
08
08
08
08
08
0E
0E
ENDCHAR
STARTCHAR Alpha
ENCODING 913
SWIDTH 598 0
DWIDTH 13 0
BBX 11 15 1 0
BITMAP
0800
0C00
0C00
0E00
1E00
1200
1300
3300
2180
7F80
7F80
40C0
C0C0
C040
8060
ENDCHAR
STARTCHAR Beta
ENCODING 914
SWIDTH 598 0
DWIDTH 13 0
BBX 10 15 1 0
BITMAP
FF00
C380
C0C0
C0C0
C0C0
C180
FF00
FF80
C0C0
C0C0
C040
C0C0
C0C0
C780
FF00
ENDCHAR
STARTCHAR Gamma
ENCODING 915
SWIDTH 598 0
DWIDTH 13 0
BBX 9 15 2 0
BITMAP
FF80
8000
8000
8000
8000
8000
8000
8000
8000
8000
8000
8000
8000
8000
8000
ENDCHAR
STARTCHAR Delta
ENCODING 916
SWIDTH 598 0
DWIDTH 13 0
BBX 11 15 1 0
BITMAP
0800
0C00
0C00
0E00
1E00
1200
1300
3300
2180
6180
6080
40C0
C0C0
FFC0
FFE0
ENDCHAR
STARTCHAR Epsilon
ENCODING 917
SWIDTH 598 0
DWIDTH 13 0
BBX 9 15 2 0
BITMAP
FF80
8000
8000
8000
8000
8000
FF00
FF00
8000
8000
8000
8000
8000
FF80
FF80
ENDCHAR
STARTCHAR Zeta
ENCODING 918
SWIDTH 598 0
DWIDTH 13 0
BBX 10 15 1 0
BITMAP
7FC0
00C0
0180
0180
0300
0200
0600
0C00
0C00
1800
3000
3000
6000
6000
FFC0
ENDCHAR
STARTCHAR Eta
ENCODING 919
SWIDTH 598 0
DWIDTH 13 0
BBX 9 15 2 0
BITMAP
8180
8180
8180
8180
8180
8180
FF80
FF80
8180
8180
8180
8180
8180
8180
8180
ENDCHAR
STARTCHAR Theta
ENCODING 920
SWIDTH 598 0
DWIDTH 13 0
BBX 11 15 1 0
BITMAP
3F00
7180
60C0
C0C0
C040
C060
DF60
DF60
C060
C060
C040
40C0
60C0
3F80
1F00
ENDCHAR
STARTCHAR Iota
ENCODING 921
SWIDTH 598 0
DWIDTH 13 0
BBX 8 15 2 0
BITMAP
7F
18
18
18
18
18
18
18
18
18
18
18
18
18
FF
ENDCHAR
STARTCHAR Kappa
ENCODING 922
SWIDTH 598 0
DWIDTH 13 0
BBX 10 15 1 0
BITMAP
C0C0
C180
C300
C600
CC00
D800
F800
F800
CC00
C600
C600
C300
C180
C1C0
C0C0
ENDCHAR
STARTCHAR Lambda
ENCODING 923
SWIDTH 598 0
DWIDTH 13 0
BBX 11 15 1 0
BITMAP
0800
0C00
0C00
0E00
1E00
1200
1300
3300
2180
6180
6080
40C0
C0C0
C040
8060
ENDCHAR
STARTCHAR Mu
ENCODING 924
SWIDTH 598 0
DWIDTH 13 0
BBX 10 15 1 0
BITMAP
C040
C0C0
E0C0
E1C0
F140
D340
DA40
CE40
CC40
C440
C040
C040
C040
C040
C040
ENDCHAR
STARTCHAR Nu
ENCODING 925
SWIDTH 598 0
DWIDTH 13 0
BBX 10 15 1 0
BITMAP
C0C0
E0C0
F0C0
F0C0
D8C0
D8C0
CCC0
C4C0
C6C0
C3C0
C3C0
C1C0
C1C0
C0C0
C0C0
ENDCHAR
STARTCHAR Xi
ENCODING 926
SWIDTH 598 0
DWIDTH 13 0
BBX 8 15 2 0
BITMAP
FF
00
00
00
00
00
7F
7F
00
00
00
00
00
FF
FF
ENDCHAR
STARTCHAR Omicron
ENCODING 927
SWIDTH 598 0
DWIDTH 13 0
BBX 11 15 1 0
BITMAP
1F00
3380
60C0
40C0
C040
C060
C060
C060
C060
C060
C040
40C0
60C0
3B80
1F00
ENDCHAR
STARTCHAR Pi
ENCODING 928
SWIDTH 598 0
DWIDTH 13 0
BBX 9 15 2 0
BITMAP
FF80
8180
8180
8180
8180
8180
8180
8180
8180
8180
8180
8180
8180
8180
8180
ENDCHAR
STARTCHAR Rho
ENCODING 929
SWIDTH 598 0
DWIDTH 13 0
BBX 9 15 2 0
BITMAP
FE00
8700
8180
8180
8080
8180
8380
FF00
8000
8000
8000
8000
8000
8000
8000
ENDCHAR
STARTCHAR Sigma
ENCODING 931
SWIDTH 598 0
DWIDTH 13 0
BBX 10 15 1 0
BITMAP
7FC0
6000
2000
3000
1000
1800
0800
0C00
0C00
1800
1000
3000
2000
6000
FFC0
ENDCHAR
STARTCHAR Tau
ENCODING 932
SWIDTH 598 0
DWIDTH 13 0
BBX 10 15 1 0
BITMAP
FFC0
0C00
0C00
0C00
0C00
0C00
0C00
0C00
0C00
0C00
0C00
0C00
0C00
0C00
0C00
ENDCHAR
STARTCHAR Upsilon
ENCODING 933
SWIDTH 598 0
DWIDTH 13 0
BBX 10 15 1 0
BITMAP
C040
60C0
6080
3180
3180
1B00
1B00
0E00
0E00
0400
0400
0400
0400
0400
0400
ENDCHAR
STARTCHAR Phi
ENCODING 934
SWIDTH 598 0
DWIDTH 13 0
BBX 12 15 0 0
BITMAP
0F80
3FC0
3660
6630
4630
C610
C610
C610
C630
6630
6660
3EC0
1F80
0200
0200
ENDCHAR
STARTCHAR Chi
ENCODING 935
SWIDTH 598 0
DWIDTH 13 0
BBX 9 15 2 0
BITMAP
C100
C300
6200
6600
3400
3C00
1800
1800
1C00
3C00
3600
6600
6300
C300
C180
ENDCHAR
STARTCHAR Psi
ENCODING 936
SWIDTH 598 0
DWIDTH 13 0
BBX 9 15 2 0
BITMAP
8180
8980
8980
8980
8980
8980
8980
C980
CB00
7E00
1800
0800
0800
0800
0800
ENDCHAR
STARTCHAR Omega
ENCODING 937
SWIDTH 598 0
DWIDTH 13 0
BBX 10 15 1 0
BITMAP
1F00
3180
6080
40C0
40C0
C0C0
C040
C040
C040
C0C0
60C0
6080
3180
F3C0
F3C0
ENDCHAR
STARTCHAR Iotadieresis
ENCODING 938
SWIDTH 598 0
DWIDTH 13 0
BBX 8 19 2 0
BITMAP
66
66
00
00
7F
18
18
18
18
18
18
18
18
18
18
18
18
18
FF
ENDCHAR
STARTCHAR Upsilondieresis
ENCODING 939
SWIDTH 598 0
DWIDTH 13 0
BBX 10 19 1 0
BITMAP
3380
3380
0000
0000
C040
60C0
6080
3180
3180
1B00
1B00
0E00
0E00
0400
0400
0400
0400
0400
0400
ENDCHAR
STARTCHAR alphatonos
ENCODING 940
SWIDTH 598 0
DWIDTH 13 0
BBX 10 16 1 0
BITMAP
0600
0400
0400
0000
0000
3EC0
63C0
C180
C180
C180
C180
C180
C180
C180
77C0
3E40
ENDCHAR
STARTCHAR epsilontonos
ENCODING 941
SWIDTH 598 0
DWIDTH 13 0
BBX 8 16 2 0
BITMAP
0C
08
08
00
00
7E
E3
C0
C0
F8
78
C0
C0
C1
FF
3E
ENDCHAR
STARTCHAR etatonos
ENCODING 942
SWIDTH 598 0
DWIDTH 13 0
BBX 9 20 2 -3
BITMAP
0800
0C00
0C00
0800
0000
0000
DF00
F300
E180
C180
C180
C180
C180
C180
C180
C180
C180
0180
0180
0180
ENDCHAR
STARTCHAR iotatonos
ENCODING 943
SWIDTH 598 0
DWIDTH 13 0
BBX 7 16 2 0
BITMAP
08
08
08
00
00
F8
08
08
08
08
08
08
08
08
0E
0E
ENDCHAR
STARTCHAR upsilondieresistonos
ENCODING 944
SWIDTH 598 0
DWIDTH 13 0
BBX 10 19 1 0
BITMAP
0800
0C00
0C00
0C00
3300
7300
0000
0000
E0C0
60C0
60C0
60C0
60C0
60C0
60C0
60C0
6180
7380
3F00
ENDCHAR
STARTCHAR alpha
ENCODING 945
SWIDTH 598 0
DWIDTH 13 0
BBX 10 11 1 0
BITMAP
3EC0
63C0
C180
C180
C180
C180
C180
C180
C180
77C0
3E40
ENDCHAR
STARTCHAR beta
ENCODING 946
SWIDTH 598 0
DWIDTH 13 0
BBX 9 18 2 -3
BITMAP
7C00
E600
C300
8300
8300
8300
BE00
BF00
8300
8180
8180
8180
C180
FF00
9E00
8000
8000
8000
ENDCHAR
STARTCHAR gamma
ENCODING 947
SWIDTH 598 0
DWIDTH 13 0
BBX 10 15 1 -4
BITMAP
C0C0
60C0
6080
2180
3180
3100
1B00
1B00
0A00
0E00
0600
0400
0400
0400
0400
ENDCHAR
STARTCHAR delta
ENCODING 948
SWIDTH 598 0
DWIDTH 13 0
BBX 10 16 1 0
BITMAP
FF80
FF80
7000
1800
0C00
0E00
3F00
6180
60C0
40C0
C0C0
C0C0
60C0
60C0
3380
1F00
ENDCHAR
STARTCHAR epsilon
ENCODING 949
SWIDTH 598 0
DWIDTH 13 0
BBX 8 11 2 0
BITMAP
7E
E3
C0
C0
F8
78
C0
C0
C1
FF
3E
ENDCHAR
STARTCHAR zeta
ENCODING 950
SWIDTH 598 0
DWIDTH 13 0
BBX 9 19 2 -3
BITMAP
FF80
FF80
0600
0C00
1000
3000
6000
C000
C000
C000
C000
C000
C000
7000
3F80
0780
0100
0300
0300
ENDCHAR
STARTCHAR eta
ENCODING 951
SWIDTH 598 0
DWIDTH 13 0
BBX 9 14 2 -3
BITMAP
DF00
F300
E180
C180
C180
C180
C180
C180
C180
C180
C180
0180
0180
0180
ENDCHAR
STARTCHAR theta
ENCODING 952
SWIDTH 598 0
DWIDTH 13 0
BBX 9 16 2 0
BITMAP
1800
7E00
6300
C300
C100
C180
C180
FF80
FF80
C180
C180
C100
C100
6300
7E00
3C00
ENDCHAR
STARTCHAR iota
ENCODING 953
SWIDTH 598 0
DWIDTH 13 0
BBX 7 11 2 0
BITMAP
F8
08
08
08
08
08
08
08
08
0E
0E
ENDCHAR
STARTCHAR kappa
ENCODING 954
SWIDTH 598 0
DWIDTH 13 0
BBX 10 11 1 0
BITMAP
C180
C300
C600
CC00
D800
FC00
C600
C600
C300
C180
C0C0
ENDCHAR
STARTCHAR lambda
ENCODING 955
SWIDTH 598 0
DWIDTH 13 0
BBX 11 16 1 0
BITMAP
7800
1C00
0C00
0400
0600
0600
0600
0F00
0F00
1900
1180
3180
2080
60C0
C0C0
C060
ENDCHAR
STARTCHAR mu
ENCODING 956
SWIDTH 598 0
DWIDTH 13 0
BBX 9 15 2 -4
BITMAP
8100
8100
8100
8100
8100
8100
8300
8300
C700
FD80
B980
8000
8000
8000
8000
ENDCHAR
STARTCHAR nu
ENCODING 957
SWIDTH 598 0
DWIDTH 13 0
BBX 11 11 1 0
BITMAP
C060
6060
6060
20C0
30C0
3180
1980
1B00
0B00
0E00
0C00
ENDCHAR
STARTCHAR xi
ENCODING 958
SWIDTH 598 0
DWIDTH 13 0
BBX 9 18 2 -3
BITMAP
FF80
8E00
3800
3000
2000
3000
1F00
3F00
6000
C000
C000
C000
E000
7E00
1F00
0300
0300
0300
ENDCHAR
STARTCHAR omicron
ENCODING 959
SWIDTH 598 0
DWIDTH 13 0
BBX 10 11 1 0
BITMAP
1F00
3180
60C0
C0C0
C040
C040
C040
C0C0
60C0
3180
1F00
ENDCHAR
STARTCHAR pi
ENCODING 960
SWIDTH 598 0
DWIDTH 13 0
BBX 11 11 1 0
BITMAP
FFE0
6080
6080
6080
6080
6080
6080
6080
6080
60C0
60C0
ENDCHAR
STARTCHAR rho
ENCODING 961
SWIDTH 598 0
DWIDTH 13 0
BBX 9 15 2 -4
BITMAP
7E00
C300
C180
8080
8080
8080
8080
C180
C100
F700
BE00
8000
8000
8000
8000
ENDCHAR
STARTCHAR sigma1
ENCODING 962
SWIDTH 598 0
DWIDTH 13 0
BBX 8 14 2 -3
BITMAP
3F
70
C0
C0
C0
C0
C0
60
78
3F
03
03
03
06
ENDCHAR
STARTCHAR sigma
ENCODING 963
SWIDTH 598 0
DWIDTH 13 0
BBX 11 11 1 0
BITMAP
3FE0
7380
E180
C0C0
C0C0
C0C0
C0C0
C0C0
6180
7380
3F00
ENDCHAR
STARTCHAR tau
ENCODING 964
SWIDTH 598 0
DWIDTH 13 0
BBX 9 11 2 0
BITMAP
FF80
1800
1800
1800
1800
1800
1800
1800
1800
0F00
0700
ENDCHAR
STARTCHAR upsilon
ENCODING 965
SWIDTH 598 0
DWIDTH 13 0
BBX 10 11 1 0
BITMAP
E0C0
60C0
60C0
60C0
60C0
60C0
60C0
60C0
6180
7380
3F00
ENDCHAR
STARTCHAR phi
ENCODING 966
SWIDTH 598 0
DWIDTH 13 0
BBX 10 17 1 -4
BITMAP
0400
0C00
1F00
3D80
6CC0
CCC0
CC40
CC40
CC40
CCC0
6CC0
3D80
1F00
0C00
0C00
0C00
0C00
ENDCHAR
STARTCHAR chi
ENCODING 967
SWIDTH 598 0
DWIDTH 13 0
BBX 10 15 1 -4
BITMAP
C080
6180
3180
3300
1B00
1E00
0E00
0C00
0E00
1A00
1B00
3100
3180
20C0
60C0
ENDCHAR
STARTCHAR psi
ENCODING 968
SWIDTH 598 0
DWIDTH 13 0
BBX 9 17 2 -4
BITMAP
1800
1800
D980
D980
D980
D980
D980
D980
D980
D900
DB00
7F00
3E00
1800
1800
1800
1800
ENDCHAR
STARTCHAR omega
ENCODING 969
SWIDTH 598 0
DWIDTH 13 0
BBX 11 11 1 0
BITMAP
C040
C040
C060
8C60
8C60
8C60
8C60
8C60
CC40
FFC0
7B80
ENDCHAR
STARTCHAR iotadieresis
ENCODING 970
SWIDTH 598 0
DWIDTH 13 0
BBX 8 15 3 0
BITMAP
63
67
00
00
F8
18
18
18
18
18
18
18
18
0E
0E
ENDCHAR
STARTCHAR upsilondieresis
ENCODING 971
SWIDTH 598 0
DWIDTH 13 0
BBX 10 15 1 0
BITMAP
3300
7300
0000
0000
E0C0
60C0
60C0
60C0
60C0
60C0
60C0
60C0
6180
7380
3F00
ENDCHAR
STARTCHAR omicrontonos
ENCODING 972
SWIDTH 598 0
DWIDTH 13 0
BBX 10 17 1 0
BITMAP
0400
0600
0400
0400
0000
0000
1F00
3180
60C0
C0C0
C040
C040
C040
C0C0
60C0
3180
1F00
ENDCHAR
STARTCHAR upsilontonos
ENCODING 973
SWIDTH 598 0
DWIDTH 13 0
BBX 10 16 1 0
BITMAP
0400
0400
0400
0000
0000
E0C0
60C0
60C0
60C0
60C0
60C0
60C0
60C0
6180
7380
3F00
ENDCHAR
STARTCHAR omegatonos
ENCODING 974
SWIDTH 598 0
DWIDTH 13 0
BBX 11 16 1 0
BITMAP
0400
0400
0400
0000
0000
C040
C040
C060
8C60
8C60
8C60
8C60
8C60
CC40
FFC0
7B80
ENDCHAR
STARTCHAR uni0400
ENCODING 1024
SWIDTH 585 0
DWIDTH 12 0
BBX 9 19 2 0
BITMAP
3000
3800
0C00
0000
FF80
8000
8000
8000
8000
8000
FF00
FF00
8000
8000
8000
8000
8000
FF80
FF80
ENDCHAR
STARTCHAR afii10023
ENCODING 1025
SWIDTH 585 0
DWIDTH 12 0
BBX 9 19 2 0
BITMAP
6600
6700
0000
0000
FF80
8000
8000
8000
8000
8000
FF00
FF00
8000
8000
8000
8000
8000
FF80
FF80
ENDCHAR
STARTCHAR afii10051
ENCODING 1026
SWIDTH 585 0
DWIDTH 12 0
BBX 12 19 0 -4
BITMAP
FF00
FF00
1000
1000
1000
13C0
1EE0
1820
1030
1030
1030
1030
1030
1030
1030
0020
0060
0CE0
07C0
ENDCHAR
STARTCHAR afii10052
ENCODING 1027
SWIDTH 585 0
DWIDTH 12 0
BBX 9 19 2 0
BITMAP
0400
1E00
3000
0000
FF80
8000
8000
8000
8000
8000
8000
8000
8000
8000
8000
8000
8000
8000
8000
ENDCHAR
STARTCHAR afii10053
ENCODING 1028
SWIDTH 585 0
DWIDTH 12 0
BBX 10 15 1 0
BITMAP
0F00
3B80
60C0
6000
4000
C000
C000
FF00
C000
C000
C000
6000
6040
39C0
1F00
ENDCHAR
STARTCHAR afii10054
ENCODING 1029
SWIDTH 585 0
DWIDTH 12 0
BBX 9 15 2 0
BITMAP
3E00
6380
C100
C000
C000
6000
7800
1E00
0300
0180
0080
0080
8180
E300
7E00
ENDCHAR
STARTCHAR afii10055
ENCODING 1030
SWIDTH 585 0
DWIDTH 12 0
BBX 8 15 2 0
BITMAP
FF
18
18
18
18
18
18
18
18
18
18
18
18
18
FF
ENDCHAR
STARTCHAR afii10056
ENCODING 1031
SWIDTH 585 0
DWIDTH 12 0
BBX 8 19 2 0
BITMAP
66
66
00
00
FF
18
18
18
18
18
18
18
18
18
18
18
18
18
FF
ENDCHAR
STARTCHAR afii10057
ENCODING 1032
SWIDTH 585 0
DWIDTH 12 0
BBX 10 15 1 0
BITMAP
1FC0
0300
0300
0300
0300
0300
0300
0300
0300
0300
0300
0300
4300
E600
7C00
ENDCHAR
STARTCHAR afii10058
ENCODING 1033
SWIDTH 585 0
DWIDTH 12 0
BBX 12 15 0 0
BITMAP
3F00
3F00
3300
3300
3300
3300
33C0
33E0
3320
3330
3330
2330
2330
A3E0
63C0
ENDCHAR
STARTCHAR afii10059
ENCODING 1034
SWIDTH 585 0
DWIDTH 12 0
BBX 11 15 1 0
BITMAP
8400
8400
8400
8400
8400
8400
8700
FFC0
84C0
8460
8460
8460
8460
85C0
8780
ENDCHAR
STARTCHAR afii10060
ENCODING 1035
SWIDTH 585 0
DWIDTH 12 0
BBX 11 15 1 0
BITMAP
FE00
FE00
3000
3000
3000
3780
3DC0
3040
3060
3060
3060
3060
3060
3060
3060
ENDCHAR
STARTCHAR afii10061
ENCODING 1036
SWIDTH 585 0
DWIDTH 12 0
BBX 10 19 1 0
BITMAP
0200
0F00
1800
0000
C0C0
C180
C300
C600
CC00
D800
F800
F800
CC00
C600
C600
C300
C180
C1C0
C0C0
ENDCHAR
STARTCHAR uni040D
ENCODING 1037
SWIDTH 585 0
DWIDTH 12 0
BBX 10 19 1 0
BITMAP
1800
1C00
0600
0000
C0C0
C1C0
C1C0
C3C0
C3C0
C6C0
C4C0
CCC0
D8C0
D8C0
F0C0
F0C0
E0C0
E0C0
C0C0
ENDCHAR
STARTCHAR afii10062
ENCODING 1038
SWIDTH 585 0
DWIDTH 12 0
BBX 10 19 1 0
BITMAP
2000
3300
1E00
0000
C0C0
C0C0
6080
6180
3180
3100
1B00
1B00
0E00
0E00
0400
0C00
0C00
5800
F000
ENDCHAR
STARTCHAR afii10145
ENCODING 1039
SWIDTH 585 0
DWIDTH 12 0
BBX 10 18 1 -3
BITMAP
C0C0
C0C0
C0C0
C0C0
C0C0
C0C0
C0C0
C0C0
C0C0
C0C0
C0C0
C0C0
C0C0
C0C0
FFC0
0C00
0C00
0C00
ENDCHAR
STARTCHAR afii10017
ENCODING 1040
SWIDTH 585 0
DWIDTH 12 0
BBX 11 15 1 0
BITMAP
0800
0C00
0C00
0E00
1E00
1200
1300
3300
2180
7F80
7F80
40C0
C0C0
C040
8060
ENDCHAR
STARTCHAR afii10018
ENCODING 1041
SWIDTH 585 0
DWIDTH 12 0
BBX 10 15 1 0
BITMAP
FF80
FF80
C000
C000
C000
C000
FE00
FF80
C180
C0C0
C0C0
C0C0
C0C0
C380
FF00
ENDCHAR
STARTCHAR afii10019
ENCODING 1042
SWIDTH 585 0
DWIDTH 12 0
BBX 10 15 1 0
BITMAP
FF00
C380
C0C0
C0C0
C0C0
C180
FF00
FF80
C0C0
C0C0
C040
C0C0
C0C0
C780
FF00
ENDCHAR
STARTCHAR afii10020
ENCODING 1043
SWIDTH 585 0
DWIDTH 12 0
BBX 9 15 2 0
BITMAP
FF80
8000
8000
8000
8000
8000
8000
8000
8000
8000
8000
8000
8000
8000
8000
ENDCHAR
STARTCHAR afii10021
ENCODING 1044
SWIDTH 585 0
DWIDTH 12 0
BBX 11 18 1 -3
BITMAP
1FC0
1FC0
10C0
10C0
10C0
10C0
30C0
30C0
30C0
30C0
30C0
20C0
20C0
60C0
FFE0
C060
C060
C060
ENDCHAR
STARTCHAR afii10022
ENCODING 1045
SWIDTH 585 0
DWIDTH 12 0
BBX 9 15 2 0
BITMAP
FF80
8000
8000
8000
8000
8000
FF00
FF00
8000
8000
8000
8000
8000
FF80
FF80
ENDCHAR
STARTCHAR afii10024
ENCODING 1046
SWIDTH 585 0
DWIDTH 12 0
BBX 11 15 1 0
BITMAP
CCC0
4CC0
6D80
2D80
3F00
1F00
1E00
0E00
1E00
3F00
3D80
6D80
6CC0
CCC0
CC60
ENDCHAR
STARTCHAR afii10025
ENCODING 1047
SWIDTH 585 0
DWIDTH 12 0
BBX 10 15 1 0
BITMAP
1E00
7F80
4180
00C0
00C0
0180
0700
1F00
0180
00C0
00C0
00C0
C0C0
6380
3F00
ENDCHAR
STARTCHAR afii10026
ENCODING 1048
SWIDTH 585 0
DWIDTH 12 0
BBX 10 15 1 0
BITMAP
C0C0
C1C0
C1C0
C3C0
C3C0
C6C0
C4C0
CCC0
D8C0
D8C0
F0C0
F0C0
E0C0
E0C0
C0C0
ENDCHAR
STARTCHAR afii10027
ENCODING 1049
SWIDTH 585 0
DWIDTH 12 0
BBX 10 19 1 0
BITMAP
2000
3300
1E00
0000
C0C0
C1C0
C1C0
C3C0
C3C0
C6C0
C4C0
CCC0
D8C0
D8C0
F0C0
F0C0
E0C0
E0C0
C0C0
ENDCHAR
STARTCHAR afii10028
ENCODING 1050
SWIDTH 585 0
DWIDTH 12 0
BBX 10 15 1 0
BITMAP
C0C0
C180
C300
C600
CC00
D800
F800
F800
CC00
C600
C600
C300
C180
C1C0
C0C0
ENDCHAR
STARTCHAR afii10029
ENCODING 1051
SWIDTH 585 0
DWIDTH 12 0
BBX 11 15 0 0
BITMAP
0FE0
0FE0
0860
0860
0860
0860
1860
1860
1860
1860
1860
1060
1060
B060
7060
ENDCHAR
STARTCHAR afii10030
ENCODING 1052
SWIDTH 585 0
DWIDTH 12 0
BBX 10 15 1 0
BITMAP
C040
C0C0
E0C0
E1C0
F140
D340
DA40
CE40
CC40
C440
C040
C040
C040
C040
C040
ENDCHAR
STARTCHAR afii10031
ENCODING 1053
SWIDTH 585 0
DWIDTH 12 0
BBX 9 15 2 0
BITMAP
8180
8180
8180
8180
8180
8180
FF80
FF80
8180
8180
8180
8180
8180
8180
8180
ENDCHAR
STARTCHAR afii10032
ENCODING 1054
SWIDTH 585 0
DWIDTH 12 0
BBX 11 15 1 0
BITMAP
1F00
3380
60C0
40C0
C040
C060
C060
C060
C060
C060
C040
40C0
60C0
3B80
1F00
ENDCHAR
STARTCHAR afii10033
ENCODING 1055
SWIDTH 585 0
DWIDTH 12 0
BBX 9 15 2 0
BITMAP
FF80
8180
8180
8180
8180
8180
8180
8180
8180
8180
8180
8180
8180
8180
8180
ENDCHAR
STARTCHAR afii10034
ENCODING 1056
SWIDTH 585 0
DWIDTH 12 0
BBX 9 15 2 0
BITMAP
FE00
8700
8180
8180
8080
8180
8380
FF00
8000
8000
8000
8000
8000
8000
8000
ENDCHAR
STARTCHAR afii10035
ENCODING 1057
SWIDTH 585 0
DWIDTH 12 0
BBX 10 15 1 0
BITMAP
1F80
31C0
6040
6000
4000
C000
C000
C000
C000
C000
4000
6000
6040
39C0
1F80
ENDCHAR
STARTCHAR afii10036
ENCODING 1058
SWIDTH 585 0
DWIDTH 12 0
BBX 10 15 1 0
BITMAP
FFC0
0C00
0C00
0C00
0C00
0C00
0C00
0C00
0C00
0C00
0C00
0C00
0C00
0C00
0C00
ENDCHAR
STARTCHAR afii10037
ENCODING 1059
SWIDTH 585 0
DWIDTH 12 0
BBX 10 15 1 0
BITMAP
C0C0
C0C0
6080
6180
3180
3100
1B00
1B00
0E00
0E00
0400
0C00
0C00
5800
F000
ENDCHAR
STARTCHAR afii10038
ENCODING 1060
SWIDTH 585 0
DWIDTH 12 0
BBX 12 16 0 0
BITMAP
0600
0700
1FC0
36E0
6660
4630
C630
C610
C610
C630
4630
6660
3EC0
1F80
0600
0600
ENDCHAR
STARTCHAR afii10039
ENCODING 1061
SWIDTH 585 0
DWIDTH 12 0
BBX 10 15 1 0
BITMAP
40C0
6080
3180
3300
1B00
1E00
0E00
0C00
0E00
1B00
1300
3180
2180
60C0
C0C0
ENDCHAR
STARTCHAR afii10040
ENCODING 1062
SWIDTH 585 0
DWIDTH 12 0
BBX 11 18 1 -3
BITMAP
C080
C080
C080
C080
C080
C080
C080
C080
C080
C080
C080
C080
C080
C080
FFE0
0060
0060
0060
ENDCHAR
STARTCHAR afii10041
ENCODING 1063
SWIDTH 585 0
DWIDTH 12 0
BBX 10 15 1 0
BITMAP
C0C0
C0C0
C0C0
C0C0
C0C0
C0C0
40C0
60C0
73C0
1FC0
00C0
00C0
00C0
00C0
00C0
ENDCHAR
STARTCHAR afii10042
ENCODING 1064
SWIDTH 585 0
DWIDTH 12 0
BBX 11 15 1 0
BITMAP
CC60
CC40
CC40
CC40
CC40
CC40
CC40
CC40
CC40
CC40
CC40
CC40
CC40
CC40
FFC0
ENDCHAR
STARTCHAR afii10043
ENCODING 1065
SWIDTH 585 0
DWIDTH 12 0
BBX 12 18 0 -3
BITMAP
C660
C660
C660
C660
C660
C660
C660
C660
C660
C660
C660
C660
C660
C660
FFF0
0030
0030
0030
ENDCHAR
STARTCHAR afii10044
ENCODING 1066
SWIDTH 585 0
DWIDTH 12 0
BBX 10 15 1 0
BITMAP
F000
F000
3000
3000
3000
3000
3E00
3F80
30C0
30C0
3040
3040
30C0
3380
3F00
ENDCHAR
STARTCHAR afii10045
ENCODING 1067
SWIDTH 585 0
DWIDTH 12 0
BBX 10 15 1 0
BITMAP
C0C0
C0C0
C0C0
C0C0
C0C0
C0C0
F0C0
FCC0
C6C0
C6C0
C6C0
C6C0
C6C0
DCC0
F8C0
ENDCHAR
STARTCHAR afii10046
ENCODING 1068
SWIDTH 585 0
DWIDTH 12 0
BBX 10 15 1 0
BITMAP
C000
C000
C000
C000
C000
C000
FE00
FF80
C180
C0C0
C0C0
C0C0
C0C0
C380
FF00
ENDCHAR
STARTCHAR afii10047
ENCODING 1069
SWIDTH 585 0
DWIDTH 12 0
BBX 10 15 1 0
BITMAP
1E00
7F00
C180
00C0
00C0
00C0
0040
1FC0
0040
0040
00C0
00C0
C180
6380
3E00
ENDCHAR
STARTCHAR afii10048
ENCODING 1070
SWIDTH 585 0
DWIDTH 12 0
BBX 11 15 1 0
BITMAP
8700
8F80
8CC0
9840
9860
9860
9860
F860
9860
9860
9860
9840
88C0
8DC0
8780
ENDCHAR
STARTCHAR afii10049
ENCODING 1071
SWIDTH 585 0
DWIDTH 12 0
BBX 10 15 1 0
BITMAP
1FC0
3FC0
60C0
40C0
C0C0
40C0
60C0
3FC0
18C0
18C0
30C0
30C0
60C0
60C0
C0C0
ENDCHAR
STARTCHAR afii10065
ENCODING 1072
SWIDTH 585 0
DWIDTH 12 0
BBX 10 11 1 0
BITMAP
3F00
2180
00C0
00C0
03C0
3FC0
60C0
C0C0
C0C0
63C0
3EC0
ENDCHAR
STARTCHAR afii10066
ENCODING 1073
SWIDTH 585 0
DWIDTH 12 0
BBX 10 16 1 0
BITMAP
0100
1F00
3C00
6000
6000
5F00
F380
E180
C0C0
C0C0
C0C0
C0C0
40C0
60C0
7180
3F00
ENDCHAR
STARTCHAR afii10067
ENCODING 1074
SWIDTH 585 0
DWIDTH 12 0
BBX 9 11 2 0
BITMAP
FC00
FF00
8300
8300
FE00
FE00
8100
8180
8180
8700
FE00
ENDCHAR
STARTCHAR afii10068
ENCODING 1075
SWIDTH 585 0
DWIDTH 12 0
BBX 8 11 2 0
BITMAP
FF
FF
C0
C0
C0
C0
C0
C0
C0
C0
C0
ENDCHAR
STARTCHAR afii10069
ENCODING 1076
SWIDTH 585 0
DWIDTH 12 0
BBX 11 14 1 -3
BITMAP
1FC0
1FC0
10C0
30C0
30C0
30C0
30C0
30C0
20C0
60C0
FFE0
C060
C060
C060
ENDCHAR
STARTCHAR afii10070
ENCODING 1077
SWIDTH 585 0
DWIDTH 12 0
BBX 10 11 1 0
BITMAP
1F00
3180
60C0
40C0
FFC0
FFC0
C000
4000
6000
30C0
1F80
ENDCHAR
STARTCHAR afii10072
ENCODING 1078
SWIDTH 585 0
DWIDTH 12 0
BBX 10 11 1 0
BITMAP
CCC0
6D80
6D80
3F00
1E00
1E00
3F00
2D80
6D80
CCC0
CCC0
ENDCHAR
STARTCHAR afii10073
ENCODING 1079
SWIDTH 585 0
DWIDTH 12 0
BBX 9 11 2 0
BITMAP
3C00
FF00
0100
0180
0700
1E00
0300
0180
8100
FF00
3C00
ENDCHAR
STARTCHAR afii10074
ENCODING 1080
SWIDTH 585 0
DWIDTH 12 0
BBX 9 11 2 0
BITMAP
8180
8380
8780
8580
8D80
9980
B180
A180
E180
C180
8180
ENDCHAR
STARTCHAR afii10075
ENCODING 1081
SWIDTH 585 0
DWIDTH 12 0
BBX 9 16 2 0
BITMAP
0100
6300
3E00
0000
0000
8180
8380
8780
8580
8D80
9980
B180
A180
E180
C180
8180
ENDCHAR
STARTCHAR afii10076
ENCODING 1082
SWIDTH 585 0
DWIDTH 12 0
BBX 9 11 2 0
BITMAP
C380
C600
CC00
D800
F800
F800
CC00
C600
C300
C380
C180
ENDCHAR
STARTCHAR afii10077
ENCODING 1083
SWIDTH 585 0
DWIDTH 12 0
BBX 11 11 0 0
BITMAP
1FE0
0FE0
1860
1860
1860
1860
1860
1060
1060
B060
7060
ENDCHAR
STARTCHAR afii10078
ENCODING 1084
SWIDTH 585 0
DWIDTH 12 0
BBX 10 11 1 0
BITMAP
C040
C0C0
E1C0
F340
DA40
DE40
CC40
C040
C040
C040
C040
ENDCHAR
STARTCHAR afii10079
ENCODING 1085
SWIDTH 585 0
DWIDTH 12 0
BBX 9 11 2 0
BITMAP
8180
8180
8180
8180
8180
FF80
8180
8180
8180
8180
8180
ENDCHAR
STARTCHAR afii10080
ENCODING 1086
SWIDTH 585 0
DWIDTH 12 0
BBX 10 11 1 0
BITMAP
1F00
3180
60C0
C0C0
C040
C040
C040
C0C0
60C0
3180
1F00
ENDCHAR
STARTCHAR afii10081
ENCODING 1087
SWIDTH 585 0
DWIDTH 12 0
BBX 9 11 2 0
BITMAP
FF80
FF80
8180
8180
8180
8180
8180
8180
8180
8180
8180
ENDCHAR
STARTCHAR afii10082
ENCODING 1088
SWIDTH 585 0
DWIDTH 12 0
BBX 9 15 2 -4
BITMAP
BE00
E300
C180
C180
8080
8080
8080
C180
C180
E300
BE00
8000
8000
8000
8000
ENDCHAR
STARTCHAR afii10083
ENCODING 1089
SWIDTH 585 0
DWIDTH 12 0
BBX 9 11 2 0
BITMAP
3F00
6180
C080
C000
8000
8000
C000
C000
C000
7380
3F00
ENDCHAR
STARTCHAR afii10084
ENCODING 1090
SWIDTH 585 0
DWIDTH 12 0
BBX 10 11 1 0
BITMAP
FFC0
FFC0
0C00
0C00
0C00
0C00
0C00
0C00
0C00
0C00
0C00
ENDCHAR
STARTCHAR afii10085
ENCODING 1091
SWIDTH 585 0
DWIDTH 12 0
BBX 10 15 1 -4
BITMAP
4040
60C0
60C0
3080
3180
1100
1900
1B00
0E00
0E00
0600
0400
0C00
9800
F000
ENDCHAR
STARTCHAR afii10086
ENCODING 1092
SWIDTH 585 0
DWIDTH 12 0
BBX 10 18 1 -4
BITMAP
0C00
0C00
0C00
1E00
3F80
6D80
CCC0
CCC0
CCC0
CCC0
CCC0
6CC0
7D80
1F00
0C00
0C00
0C00
0C00
ENDCHAR
STARTCHAR afii10087
ENCODING 1093
SWIDTH 585 0
DWIDTH 12 0
BBX 9 11 2 0
BITMAP
C100
4300
6600
3400
1C00
1800
3C00
3600
6300
C300
C180
ENDCHAR
STARTCHAR afii10088
ENCODING 1094
SWIDTH 585 0
DWIDTH 12 0
BBX 10 14 2 -3
BITMAP
8100
8100
8100
8100
8100
8100
8100
8100
8100
8100
FFC0
00C0
00C0
00C0
ENDCHAR
STARTCHAR afii10089
ENCODING 1095
SWIDTH 585 0
DWIDTH 12 0
BBX 9 11 2 0
BITMAP
8180
8180
8180
8180
C380
C380
7D80
3980
0180
0180
0180
ENDCHAR
STARTCHAR afii10090
ENCODING 1096
SWIDTH 585 0
DWIDTH 12 0
BBX 10 11 1 0
BITMAP
CC40
CC40
CC40
CC40
CC40
CC40
CC40
CC40
CC40
CC40
FFC0
ENDCHAR
STARTCHAR afii10091
ENCODING 1097
SWIDTH 585 0
DWIDTH 12 0
BBX 12 14 0 -3
BITMAP
C660
C660
C660
C660
C660
C660
C660
C660
C660
C660
FFF0
0030
0030
0030
ENDCHAR
STARTCHAR afii10092
ENCODING 1098
SWIDTH 585 0
DWIDTH 12 0
BBX 10 11 1 0
BITMAP
F000
F000
3000
3000
3C00
3F80
31C0
30C0
30C0
3380
3F00
ENDCHAR
STARTCHAR afii10093
ENCODING 1099
SWIDTH 585 0
DWIDTH 12 0
BBX 10 11 1 0
BITMAP
C0C0
C0C0
C0C0
C0C0
F0C0
FCC0
C6C0
C6C0
C6C0
CEC0
F8C0
ENDCHAR
STARTCHAR afii10094
ENCODING 1100
SWIDTH 585 0
DWIDTH 12 0
BBX 8 11 2 0
BITMAP
C0
C0
C0
C0
F8
FE
C3
C1
C3
C7
FE
ENDCHAR
STARTCHAR afii10095
ENCODING 1101
SWIDTH 585 0
DWIDTH 12 0
BBX 9 11 2 0
BITMAP
7C00
EE00
8300
0180
3F80
3F80
0180
0180
8300
C700
7C00
ENDCHAR
STARTCHAR afii10096
ENCODING 1102
SWIDTH 585 0
DWIDTH 12 0
BBX 10 11 1 0
BITMAP
C700
C580
CCC0
C8C0
F8C0
F8C0
C8C0
C8C0
CCC0
CC80
C780
ENDCHAR
STARTCHAR afii10097
ENCODING 1103
SWIDTH 585 0
DWIDTH 12 0
BBX 8 11 2 0
BITMAP
3F
7F
C1
C1
C1
7F
3F
31
61
61
C1
ENDCHAR
STARTCHAR uni0450
ENCODING 1104
SWIDTH 585 0
DWIDTH 12 0
BBX 10 17 1 0
BITMAP
0800
0C00
0600
0600
0000
0000
1F00
3180
60C0
40C0
FFC0
FFC0
C000
4000
6000
30C0
1F80
ENDCHAR
STARTCHAR afii10071
ENCODING 1105
SWIDTH 585 0
DWIDTH 12 0
BBX 10 16 1 0
BITMAP
3380
3380
0000
0000
0000
1F00
3180
60C0
40C0
FFC0
FFC0
C000
4000
6000
30C0
1F80
ENDCHAR
STARTCHAR afii10099
ENCODING 1106
SWIDTH 585 0
DWIDTH 12 0
BBX 10 20 1 -4
BITMAP
6000
6000
FC00
6000
6000
6780
6D80
70C0
60C0
60C0
60C0
60C0
60C0
60C0
60C0
60C0
00C0
10C0
1980
1F00
ENDCHAR
STARTCHAR afii10100
ENCODING 1107
SWIDTH 585 0
DWIDTH 12 0
BBX 8 17 2 0
BITMAP
04
0C
0C
18
00
00
FF
FF
C0
C0
C0
C0
C0
C0
C0
C0
C0
ENDCHAR
STARTCHAR afii10101
ENCODING 1108
SWIDTH 585 0
DWIDTH 12 0
BBX 9 11 2 0
BITMAP
3E00
7380
C180
C000
FE00
FE00
8000
C000
C000
7380
3F00
ENDCHAR
STARTCHAR afii10102
ENCODING 1109
SWIDTH 585 0
DWIDTH 12 0
BBX 9 11 2 0
BITMAP
3F00
6380
C000
E000
7800
1F00
0380
0180
8180
E300
7E00
ENDCHAR
STARTCHAR afii10103
ENCODING 1110
SWIDTH 585 0
DWIDTH 12 0
BBX 7 16 3 0
BITMAP
30
38
10
00
00
F0
30
30
30
30
30
30
30
30
30
FE
ENDCHAR
STARTCHAR afii10104
ENCODING 1111
SWIDTH 585 0
DWIDTH 12 0
BBX 7 16 3 0
BITMAP
CE
CE
00
00
00
F0
30
30
30
30
30
30
30
30
30
FE
ENDCHAR
STARTCHAR afii10105
ENCODING 1112
SWIDTH 585 0
DWIDTH 12 0
BBX 8 20 2 -4
BITMAP
06
07
02
00
00
7E
06
06
06
06
06
06
06
06
06
06
06
86
CC
F8
ENDCHAR
STARTCHAR afii10106
ENCODING 1113
SWIDTH 585 0
DWIDTH 12 0
BBX 12 11 0 0
BITMAP
3F00
3F00
3300
3300
3380
33E0
3330
2330
2330
A360
63E0
ENDCHAR
STARTCHAR afii10107
ENCODING 1114
SWIDTH 585 0
DWIDTH 12 0
BBX 11 11 1 0
BITMAP
8400
8400
8400
8400
8700
FFC0
8460
8460
8460
84C0
87C0
ENDCHAR
STARTCHAR afii10108
ENCODING 1115
SWIDTH 585 0
DWIDTH 12 0
BBX 10 16 1 0
BITMAP
6000
6000
FC00
6000
6000
6780
6D80
70C0
60C0
60C0
60C0
60C0
60C0
60C0
60C0
60C0
ENDCHAR
STARTCHAR afii10109
ENCODING 1116
SWIDTH 585 0
DWIDTH 12 0
BBX 9 17 2 0
BITMAP
0400
0C00
0C00
1800
0000
0000
C380
C600
CC00
D800
F800
F800
CC00
C600
C300
C380
C180
ENDCHAR
STARTCHAR uni045D
ENCODING 1117
SWIDTH 585 0
DWIDTH 12 0
BBX 9 17 2 0
BITMAP
1000
1800
0C00
0C00
0000
0000
8180
8380
8780
8580
8D80
9980
B180
A180
E180
C180
8180
ENDCHAR
STARTCHAR afii10110
ENCODING 1118
SWIDTH 585 0
DWIDTH 12 0
BBX 10 20 1 -4
BITMAP
0080
3180
1F00
0000
0000
4040
60C0
60C0
3080
3180
1100
1900
1B00
0E00
0E00
0600
0400
0C00
9800
F000
ENDCHAR
STARTCHAR afii10193
ENCODING 1119
SWIDTH 585 0
DWIDTH 12 0
BBX 10 14 1 -3
BITMAP
C0C0
C0C0
C0C0
C0C0
C0C0
C0C0
C0C0
C0C0
C0C0
C0C0
FFC0
0C00
0C00
0C00
ENDCHAR
STARTCHAR afii10146
ENCODING 1122
SWIDTH 585 0
DWIDTH 12 0
BBX 10 15 1 0
BITMAP
3000
3000
3000
FF00
3000
3000
3E00
3F80
30C0
30C0
3040
3040
30C0
3380
3F00
ENDCHAR
STARTCHAR afii10194
ENCODING 1123
SWIDTH 585 0
DWIDTH 12 0
BBX 10 14 1 0
BITMAP
3000
3000
3000
FE00
FE00
3000
3000
3C00
3F80
31C0
30C0
30C0
3380
3F00
ENDCHAR
STARTCHAR afii10147
ENCODING 1138
SWIDTH 585 0
DWIDTH 12 0
BBX 11 15 1 0
BITMAP
3F00
7180
60C0
C0C0
C040
C060
DF60
DF60
C060
C060
C040
40C0
60C0
3F80
1F00
ENDCHAR
STARTCHAR afii10195
ENCODING 1139
SWIDTH 585 0
DWIDTH 12 0
BBX 10 11 1 0
BITMAP
1F00
3380
6180
40C0
DEC0
DEC0
C0C0
C0C0
60C0
7180
1F00
ENDCHAR
STARTCHAR afii10148
ENCODING 1140
SWIDTH 585 0
DWIDTH 12 0
BBX 11 15 1 0
BITMAP
C060
C040
40C0
60C0
6080
2180
3180
3100
1300
1B00
1A00
0E00
0E00
0C00
0400
ENDCHAR
STARTCHAR afii10196
ENCODING 1141
SWIDTH 585 0
DWIDTH 12 0
BBX 10 11 1 0
BITMAP
C040
60C0
60C0
2080
3180
3100
1B00
1A00
0E00
0E00
0C00
ENDCHAR
STARTCHAR afii10050
ENCODING 1168
SWIDTH 585 0
DWIDTH 12 0
BBX 9 19 2 0
BITMAP
0180
0180
0180
0180
FF80
FF80
8000
8000
8000
8000
8000
8000
8000
8000
8000
8000
8000
8000
8000
ENDCHAR
STARTCHAR afii10098
ENCODING 1169
SWIDTH 585 0
DWIDTH 12 0
BBX 8 14 2 0
BITMAP
03
03
03
FF
FF
C0
C0
C0
C0
C0
C0
C0
C0
C0
ENDCHAR
STARTCHAR Wgrave
ENCODING 7808
SWIDTH 585 0
DWIDTH 12 0
BBX 11 19 1 0
BITMAP
1800
1C00
0600
0000
8020
8460
C460
C460
CE40
4E40
4A40
4B40
73C0
71C0
7180
7180
2180
2080
2080
ENDCHAR
STARTCHAR wgrave
ENCODING 7809
SWIDTH 585 0
DWIDTH 12 0
BBX 11 17 1 0
BITMAP
0800
0C00
0600
0600
0000
0000
8060
8460
CC60
CE40
4A40
4A40
5B40
73C0
71C0
3180
3180
ENDCHAR
STARTCHAR Wacute
ENCODING 7810
SWIDTH 585 0
DWIDTH 12 0
BBX 11 19 1 0
BITMAP
0300
0F00
0800
0000
8020
8460
C460
C460
CE40
4E40
4A40
4B40
73C0
71C0
7180
7180
2180
2080
2080
ENDCHAR
STARTCHAR wacute
ENCODING 7811
SWIDTH 585 0
DWIDTH 12 0
BBX 11 17 1 0
BITMAP
0200
0600
0600
0C00
0000
0000
8060
8460
CC60
CE40
4A40
4A40
5B40
73C0
71C0
3180
3180
ENDCHAR
STARTCHAR Wdieresis
ENCODING 7812
SWIDTH 585 0
DWIDTH 12 0
BBX 11 19 1 0
BITMAP
3300
3380
0000
0000
8020
8460
C460
C460
CE40
4E40
4A40
4B40
73C0
71C0
7180
7180
2180
2080
2080
ENDCHAR
STARTCHAR wdieresis
ENCODING 7813
SWIDTH 585 0
DWIDTH 12 0
BBX 11 16 1 0
BITMAP
3380
3380
0000
0000
0000
8060
8460
CC60
CE40
4A40
4A40
5B40
73C0
71C0
3180
3180
ENDCHAR
STARTCHAR Ygrave
ENCODING 7922
SWIDTH 585 0
DWIDTH 12 0
BBX 10 19 1 0
BITMAP
1800
1C00
0600
0000
C040
60C0
6080
3180
3180
1B00
1B00
0E00
0E00
0400
0400
0400
0400
0400
0400
ENDCHAR
STARTCHAR ygrave
ENCODING 7923
SWIDTH 585 0
DWIDTH 12 0
BBX 10 21 1 -4
BITMAP
0800
0C00
0600
0600
0000
0000
4040
60C0
60C0
3080
3180
1100
1900
1B00
0E00
0E00
0600
0400
0C00
9800
F000
ENDCHAR
STARTCHAR endash
ENCODING 8211
SWIDTH 585 0
DWIDTH 12 0
BBX 7 1 3 7
BITMAP
FE
ENDCHAR
STARTCHAR emdash
ENCODING 8212
SWIDTH 585 0
DWIDTH 12 0
BBX 10 1 1 7
BITMAP
FFC0
ENDCHAR
STARTCHAR afii00208
ENCODING 8213
SWIDTH 585 0
DWIDTH 12 0
BBX 12 1 0 7
BITMAP
FFF0
ENDCHAR
STARTCHAR underscoredbl
ENCODING 8215
SWIDTH 585 0
DWIDTH 12 0
BBX 11 5 1 -2
BITMAP
FFE0
FFE0
0000
FFE0
FFE0
ENDCHAR
STARTCHAR quoteleft
ENCODING 8216
SWIDTH 598 0
DWIDTH 13 0
BBX 3 6 4 9
BITMAP
20
60
40
C0
E0
60
ENDCHAR
STARTCHAR quoteright
ENCODING 8217
SWIDTH 598 0
DWIDTH 13 0
BBX 4 6 4 9
BITMAP
60
70
20
20
40
C0
ENDCHAR
STARTCHAR quotesinglbase
ENCODING 8218
SWIDTH 598 0
DWIDTH 13 0
BBX 4 6 4 -4
BITMAP
60
70
20
20
40
C0
ENDCHAR
STARTCHAR quotereversed
ENCODING 8219
SWIDTH 585 0
DWIDTH 12 0
BBX 3 6 4 9
BITMAP
60
E0
C0
40
60
20
ENDCHAR
STARTCHAR quotedblleft
ENCODING 8220
SWIDTH 598 0
DWIDTH 13 0
BBX 8 6 2 9
BITMAP
63
42
C6
C6
E7
E7
ENDCHAR
STARTCHAR quotedblright
ENCODING 8221
SWIDTH 598 0
DWIDTH 13 0
BBX 8 7 2 9
BITMAP
42
E7
E7
63
63
C6
84
ENDCHAR
STARTCHAR quotedblbase
ENCODING 8222
SWIDTH 598 0
DWIDTH 13 0
BBX 8 6 2 -4
BITMAP
E7
E7
63
63
C2
84
ENDCHAR
STARTCHAR uni201F
ENCODING 8223
SWIDTH 585 0
DWIDTH 12 0
BBX 8 6 2 9
BITMAP
C6
E7
C6
C4
42
63
ENDCHAR
STARTCHAR dagger
ENCODING 8224
SWIDTH 598 0
DWIDTH 13 0
BBX 10 20 1 -4
BITMAP
0C00
0C00
0C00
0C00
0C00
FFC0
0C00
0C00
0C00
0C00
0C00
0C00
0C00
0C00
0C00
0C00
0C00
0C00
0C00
0C00
ENDCHAR
STARTCHAR daggerdbl
ENCODING 8225
SWIDTH 598 0
DWIDTH 13 0
BBX 10 20 1 -4
BITMAP
0C00
0C00
0C00
0C00
0C00
FFC0
0C00
0C00
0C00
0C00
0C00
0C00
0C00
FFC0
FFC0
0C00
0C00
0C00
0C00
0C00
ENDCHAR
STARTCHAR bullet
ENCODING 8226
SWIDTH 598 0
DWIDTH 13 0
BBX 4 4 4 5
BITMAP
70
F0
F0
70
ENDCHAR
STARTCHAR ellipsis
ENCODING 8230
SWIDTH 598 0
DWIDTH 13 0
BBX 12 2 0 0
BITMAP
E670
6670
ENDCHAR
STARTCHAR perthousand
ENCODING 8240
SWIDTH 585 0
DWIDTH 12 0
BBX 12 15 0 0
BITMAP
6600
5600
D400
DC00
5C00
7800
0800
1800
1800
1660
1F70
3BD0
3BD0
2FF0
6660
ENDCHAR
STARTCHAR minute
ENCODING 8242
SWIDTH 585 0
DWIDTH 12 0
BBX 3 4 5 11
BITMAP
60
40
C0
80
ENDCHAR
STARTCHAR second
ENCODING 8243
SWIDTH 585 0
DWIDTH 12 0
BBX 7 4 3 11
BITMAP
66
46
CC
88
ENDCHAR
STARTCHAR guilsinglleft
ENCODING 8249
SWIDTH 598 0
DWIDTH 13 0
BBX 5 8 4 2
BITMAP
10
30
60
C0
C0
60
30
18
ENDCHAR
STARTCHAR guilsinglright
ENCODING 8250
SWIDTH 598 0
DWIDTH 13 0
BBX 4 7 4 2
BITMAP
C0
60
30
10
30
60
C0
ENDCHAR
STARTCHAR exclamdbl
ENCODING 8252
SWIDTH 585 0
DWIDTH 12 0
BBX 8 16 2 0
BITMAP
67
E7
E7
67
63
62
62
42
42
42
42
00
00
42
E7
E7
ENDCHAR
STARTCHAR uni203E
ENCODING 8254
SWIDTH 585 0
DWIDTH 12 0
BBX 11 2 1 14
BITMAP
FFE0
FFE0
ENDCHAR
STARTCHAR fraction
ENCODING 8260
SWIDTH 598 0
DWIDTH 13 0
BBX 9 17 2 -1
BITMAP
0180
0100
0300
0200
0200
0600
0400
0C00
0800
1800
1000
3000
2000
6000
4000
C000
8000
ENDCHAR
STARTCHAR uni2070
ENCODING 8304
SWIDTH 585 0
DWIDTH 12 0
BBX 8 9 2 6
BITMAP
3C
62
47
CF
D9
F3
63
66
3C
ENDCHAR
STARTCHAR uni2074
ENCODING 8308
SWIDTH 598 0
DWIDTH 13 0
BBX 7 10 3 6
BITMAP
0C
0C
1C
3C
6C
4C
FE
FE
0C
0C
ENDCHAR
STARTCHAR uni2075
ENCODING 8309
SWIDTH 585 0
DWIDTH 12 0
BBX 7 9 3 6
BITMAP
FC
C0
C0
FC
86
06
06
C4
78
ENDCHAR
STARTCHAR uni2076
ENCODING 8310
SWIDTH 585 0
DWIDTH 12 0
BBX 7 9 3 6
BITMAP
7E
C0
80
FC
C4
86
86
C4
78
ENDCHAR
STARTCHAR uni2077
ENCODING 8311
SWIDTH 585 0
DWIDTH 12 0
BBX 7 9 3 6
BITMAP
FE
0C
0C
18
10
30
30
60
60
ENDCHAR
STARTCHAR uni2078
ENCODING 8312
SWIDTH 585 0
DWIDTH 12 0
BBX 8 9 2 6
BITMAP
3E
62
62
34
3E
43
C3
63
3C
ENDCHAR
STARTCHAR uni2079
ENCODING 8313
SWIDTH 585 0
DWIDTH 12 0
BBX 7 9 3 6
BITMAP
7C
84
86
86
FE
36
04
8C
F8
ENDCHAR
STARTCHAR uni207F
ENCODING 8319
SWIDTH 585 0
DWIDTH 12 0
BBX 6 7 3 6
BITMAP
18
FC
CC
C4
C4
C4
C4
ENDCHAR
STARTCHAR franc
ENCODING 8355
SWIDTH 585 0
DWIDTH 12 0
BBX 10 15 1 0
BITMAP
7FC0
7FC0
6000
6000
6000
6000
FF80
6000
6000
FF80
6000
6000
6000
6000
6000
ENDCHAR
STARTCHAR lira
ENCODING 8356
SWIDTH 585 0
DWIDTH 12 0
BBX 10 15 1 0
BITMAP
0F00
1F80
3000
3000
2000
3000
7C00
3000
1000
7C00
1000
3000
3000
7E40
C7C0
ENDCHAR
STARTCHAR peseta
ENCODING 8359
SWIDTH 585 0
DWIDTH 12 0
BBX 11 15 1 0
BITMAP
E000
F600
9E00
9E00
9FC0
9F60
9D00
F500
8580
84C0
8460
8420
8420
8660
83C0
ENDCHAR
STARTCHAR euro
ENCODING 8364
SWIDTH 598 0
DWIDTH 13 0
BBX 10 15 1 0
BITMAP
0FC0
1840
3000
3000
2000
FF80
6000
6000
FF00
FE00
2000
3000
3000
1C40
0FC0
ENDCHAR
STARTCHAR afii61248
ENCODING 8453
SWIDTH 585 0
DWIDTH 12 0
BBX 11 17 1 -1
BITMAP
00C0
7080
C980
8100
8100
C300
7200
0600
0400
0C00
0980
1B60
1220
3220
2260
61C0
4000
ENDCHAR
STARTCHAR afii61289
ENCODING 8467
SWIDTH 585 0
DWIDTH 12 0
BBX 8 16 2 0
BITMAP
18
3C
66
66
66
66
66
66
66
6C
6C
38
30
F0
1F
0F
ENDCHAR
STARTCHAR afii61352
ENCODING 8470
SWIDTH 585 0
DWIDTH 12 0
BBX 11 15 1 0
BITMAP
8C00
CC00
CC00
CC00
ECC0
ED40
AD40
BD60
BD60
9D40
9D40
9DC0
8C80
8C00
8FE0
ENDCHAR
STARTCHAR trademark
ENCODING 8482
SWIDTH 598 0
DWIDTH 13 0
BBX 11 7 1 8
BITMAP
FA20
2360
2360
22A0
22A0
2220
2220
ENDCHAR
STARTCHAR uni2126
ENCODING 8486
SWIDTH 585 0
DWIDTH 12 0
BBX 10 15 1 0
BITMAP
1F00
3180
6080
40C0
40C0
C0C0
C040
C040
C040
C0C0
60C0
6080
3180
F3C0
F3C0
ENDCHAR
STARTCHAR estimated
ENCODING 8494
SWIDTH 585 0
DWIDTH 12 0
BBX 10 15 1 0
BITMAP
1E00
3F80
6180
61C0
E1C0
E1C0
E1C0
FFC0
E000
E000
E000
E000
6040
39C0
1F00
ENDCHAR
STARTCHAR oneeighth
ENCODING 8539
SWIDTH 585 0
DWIDTH 12 0
BBX 11 18 1 -2
BITMAP
E0C0
2080
2180
2100
2100
2300
2200
0600
0400
0C00
0BC0
1A60
1240
33C0
2260
6420
4660
0180
ENDCHAR
STARTCHAR threeeighths
ENCODING 8540
SWIDTH 585 0
DWIDTH 12 0
BBX 11 19 1 -2
BITMAP
2000
F0C0
0880
1880
3980
0900
8B00
F200
0600
0400
0C00
0BC0
1A60
1240
13C0
2260
2420
6660
0180
ENDCHAR
STARTCHAR fiveeighths
ENCODING 8541
SWIDTH 585 0
DWIDTH 12 0
BBX 11 18 1 -2
BITMAP
F8C0
8080
F180
9900
0900
0B00
F200
0600
0400
0C00
0BC0
1A60
1240
33C0
2260
6420
4660
0180
ENDCHAR
STARTCHAR seveneighths
ENCODING 8542
SWIDTH 585 0
DWIDTH 12 0
BBX 12 18 0 -2
BITMAP
F860
0840
10C0
3080
2080
2180
4100
0300
0200
0600
05E0
0D30
0920
19E0
1130
3210
2330
00C0
ENDCHAR
STARTCHAR arrowleft
ENCODING 8592
SWIDTH 585 0
DWIDTH 12 0
BBX 11 8 1 3
BITMAP
3000
6000
C000
FFE0
FFE0
4000
2000
3000
ENDCHAR
STARTCHAR uparrow
ENCODING 8593
SWIDTH 598 0
DWIDTH 13 0
BBX 9 17 2 -1
BITMAP
0800
1C00
1C00
3E00
6B00
C900
8980
0800
0800
0800
0800
0800
0800
0800
0800
0800
0800
ENDCHAR
STARTCHAR arrowright
ENCODING 8594
SWIDTH 585 0
DWIDTH 12 0
BBX 11 8 1 3
BITMAP
0300
0180
00C0
FFE0
FFC0
0080
0180
0300
ENDCHAR
STARTCHAR downarrow
ENCODING 8595
SWIDTH 598 0
DWIDTH 13 0
BBX 9 17 2 -1
BITMAP
1800
1800
1800
1800
1800
1800
1800
1800
1800
1800
9800
D980
7B00
7E00
3C00
1800
0800
ENDCHAR
STARTCHAR arrowboth
ENCODING 8596
SWIDTH 585 0
DWIDTH 12 0
BBX 11 8 1 3
BITMAP
3300
6180
C0C0
FFE0
FFC0
4080
2180
3300
ENDCHAR
STARTCHAR arrowupdn
ENCODING 8597
SWIDTH 585 0
DWIDTH 12 0
BBX 9 16 2 -1
BITMAP
1800
1C00
3C00
7E00
DB00
9980
1800
1800
1800
1800
D900
5B00
7E00
3C00
1800
1000
ENDCHAR
STARTCHAR partialdiff
ENCODING 8706
SWIDTH 585 0
DWIDTH 12 0
BBX 10 16 1 0
BITMAP
1800
0C00
0200
0300
0180
1E80
33C0
60C0
40C0
C0C0
C0C0
C0C0
C0C0
60C0
7180
1F00
ENDCHAR
STARTCHAR uni2206
ENCODING 8710
SWIDTH 585 0
DWIDTH 12 0
BBX 11 15 1 0
BITMAP
0800
0C00
0C00
0E00
1E00
1200
1300
3300
2180
6180
6080
40C0
C0C0
FFC0
FFE0
ENDCHAR
STARTCHAR product
ENCODING 8719
SWIDTH 585 0
DWIDTH 12 0
BBX 9 15 2 0
BITMAP
FF80
8180
8180
8180
8180
8180
8180
8180
8180
8180
8180
8180
8180
8180
8180
ENDCHAR
STARTCHAR summation
ENCODING 8721
SWIDTH 585 0
DWIDTH 12 0
BBX 10 15 1 0
BITMAP
7FC0
6000
2000
3000
1000
1800
0800
0C00
0C00
1800
1000
3000
2000
6000
FFC0
ENDCHAR
STARTCHAR minus
ENCODING 8722
SWIDTH 598 0
DWIDTH 13 0
BBX 10 1 1 7
BITMAP
FFC0
ENDCHAR
STARTCHAR uni2215
ENCODING 8725
SWIDTH 585 0
DWIDTH 12 0
BBX 9 17 2 -1
BITMAP
0180
0100
0300
0200
0600
0600
0C00
0C00
1800
1800
3000
3000
2000
6000
4000
C000
8000
ENDCHAR
STARTCHAR uni2219
ENCODING 8729
SWIDTH 585 0
DWIDTH 12 0
BBX 4 4 4 5
BITMAP
70
F0
F0
70
ENDCHAR
STARTCHAR radical
ENCODING 8730
SWIDTH 585 0
DWIDTH 12 0
BBX 11 15 1 0
BITMAP
0060
0060
0040
00C0
0080
0180
E180
E100
A300
B300
3200
1600
1E00
1C00
0C00
ENDCHAR
STARTCHAR infinity
ENCODING 8734
SWIDTH 585 0
DWIDTH 12 0
BBX 10 6 1 5
BITMAP
7B80
CC40
8440
CC40
5EC0
3380
ENDCHAR
STARTCHAR orthogonal
ENCODING 8735
SWIDTH 585 0
DWIDTH 12 0
BBX 8 8 2 4
BITMAP
C0
C0
C0
C0
C0
C0
C0
FF
ENDCHAR
STARTCHAR intersection
ENCODING 8745
SWIDTH 585 0
DWIDTH 12 0
BBX 10 9 1 2
BITMAP
1F00
7380
60C0
40C0
C0C0
C0C0
C0C0
C0C0
C0C0
ENDCHAR
STARTCHAR integral
ENCODING 8747
SWIDTH 585 0
DWIDTH 12 0
BBX 12 20 0 -4
BITMAP
01E0
03B0
0310
0600
0600
0600
0600
0600
0600
0600
0600
0600
0600
0600
0600
0600
0600
4600
EC00
7800
ENDCHAR
STARTCHAR approxequal
ENCODING 8776
SWIDTH 585 0
DWIDTH 12 0
BBX 10 7 1 6
BITMAP
7C40
CFC0
4380
0000
3C40
6EC0
4380
ENDCHAR
STARTCHAR notequal
ENCODING 8800
SWIDTH 585 0
DWIDTH 12 0
BBX 10 17 1 -1
BITMAP
00C0
0080
0180
0100
0300
FFC0
FFC0
0600
0C00
0C00
FFC0
FFC0
1000
3000
2000
6000
4000
ENDCHAR
STARTCHAR equivalence
ENCODING 8801
SWIDTH 585 0
DWIDTH 12 0
BBX 10 8 1 3
BITMAP
FFC0
0000
0000
FFC0
FFC0
0000
0000
FFC0
ENDCHAR
STARTCHAR lessequal
ENCODING 8804
SWIDTH 585 0
DWIDTH 12 0
BBX 10 15 1 0
BITMAP
0040
01C0
0700
1C00
7000
C000
E000
3800
0E00
0700
01C0
0040
0000
FFC0
FFC0
ENDCHAR
STARTCHAR greaterequal
ENCODING 8805
SWIDTH 585 0
DWIDTH 12 0
BBX 11 15 1 0
BITMAP
C000
F000
3800
0E00
0380
00E0
01C0
0380
0E00
3800
E000
C000
0000
FFC0
FFC0
ENDCHAR
STARTCHAR visiblespace
ENCODING 9251
SWIDTH 598 0
DWIDTH 13 0
BBX 10 4 1 -2
BITMAP
C040
C040
C040
FFC0
ENDCHAR
STARTCHAR SF100000
ENCODING 9472
SWIDTH 585 0
DWIDTH 12 0
BBX 12 1 0 6
BITMAP
FFF0
ENDCHAR
STARTCHAR SF110000
ENCODING 9474
SWIDTH 585 0
DWIDTH 12 0
BBX 2 21 5 -4
BITMAP
C0
C0
C0
C0
C0
C0
C0
C0
C0
C0
C0
C0
C0
C0
C0
C0
C0
C0
C0
C0
C0
ENDCHAR
STARTCHAR SF010000
ENCODING 9484
SWIDTH 585 0
DWIDTH 12 0
BBX 7 11 5 -4
BITMAP
FE
C0
C0
C0
C0
C0
C0
C0
C0
C0
C0
ENDCHAR
STARTCHAR SF030000
ENCODING 9488
SWIDTH 585 0
DWIDTH 12 0
BBX 7 11 0 -4
BITMAP
FE
06
06
06
06
06
06
06
06
06
06
ENDCHAR
STARTCHAR SF020000
ENCODING 9492
SWIDTH 585 0
DWIDTH 12 0
BBX 7 11 5 6
BITMAP
C0
C0
C0
C0
C0
C0
C0
C0
C0
C0
FE
ENDCHAR
STARTCHAR SF040000
ENCODING 9496
SWIDTH 585 0
DWIDTH 12 0
BBX 7 11 0 6
BITMAP
06
06
06
06
06
06
06
06
06
06
FE
ENDCHAR
STARTCHAR SF080000
ENCODING 9500
SWIDTH 585 0
DWIDTH 12 0
BBX 7 21 5 -4
BITMAP
C0
C0
C0
C0
C0
C0
C0
C0
C0
C0
FE
C0
C0
C0
C0
C0
C0
C0
C0
C0
C0
ENDCHAR
STARTCHAR SF090000
ENCODING 9508
SWIDTH 585 0
DWIDTH 12 0
BBX 7 21 0 -4
BITMAP
06
06
06
06
06
06
06
06
06
06
FE
06
06
06
06
06
06
06
06
06
06
ENDCHAR
STARTCHAR SF060000
ENCODING 9516
SWIDTH 585 0
DWIDTH 12 0
BBX 12 11 0 -4
BITMAP
FFF0
0600
0600
0600
0600
0600
0600
0600
0600
0600
0600
ENDCHAR
STARTCHAR SF070000
ENCODING 9524
SWIDTH 585 0
DWIDTH 12 0
BBX 12 11 0 6
BITMAP
0600
0600
0600
0600
0600
0600
0600
0600
0600
0600
FFF0
ENDCHAR
STARTCHAR SF050000
ENCODING 9532
SWIDTH 585 0
DWIDTH 12 0
BBX 12 21 0 -4
BITMAP
0600
0600
0600
0600
0600
0600
0600
0600
0600
0600
FFF0
0600
0600
0600
0600
0600
0600
0600
0600
0600
0600
ENDCHAR
STARTCHAR SF430000
ENCODING 9552
SWIDTH 585 0
DWIDTH 12 0
BBX 12 5 0 4
BITMAP
FFF0
0000
0000
0000
FFF0
ENDCHAR
STARTCHAR SF240000
ENCODING 9553
SWIDTH 585 0
DWIDTH 12 0
BBX 6 21 3 -4
BITMAP
CC
CC
CC
CC
CC
CC
CC
CC
CC
CC
CC
CC
CC
CC
CC
CC
CC
CC
CC
CC
CC
ENDCHAR
STARTCHAR SF510000
ENCODING 9554
SWIDTH 585 0
DWIDTH 12 0
BBX 7 13 5 -4
BITMAP
FE
C0
C0
C0
FE
C0
C0
C0
C0
C0
C0
C0
C0
ENDCHAR
STARTCHAR SF520000
ENCODING 9555
SWIDTH 585 0
DWIDTH 12 0
BBX 9 11 3 -4
BITMAP
FF80
CC00
CC00
CC00
CC00
CC00
CC00
CC00
CC00
CC00
CC00
ENDCHAR
STARTCHAR SF390000
ENCODING 9556
SWIDTH 585 0
DWIDTH 12 0
BBX 9 13 3 -4
BITMAP
FF80
C000
C000
C000
CF80
CC00
CC00
CC00
CC00
CC00
CC00
CC00
CC00
ENDCHAR
STARTCHAR SF220000
ENCODING 9557
SWIDTH 585 0
DWIDTH 12 0
BBX 7 13 0 -4
BITMAP
FE
06
06
06
FE
06
06
06
06
06
06
06
06
ENDCHAR
STARTCHAR SF210000
ENCODING 9558
SWIDTH 585 0
DWIDTH 12 0
BBX 9 11 0 -4
BITMAP
FF80
1980
1980
1980
1980
1980
1980
1980
1980
1980
1980
ENDCHAR
STARTCHAR SF250000
ENCODING 9559
SWIDTH 585 0
DWIDTH 12 0
BBX 9 13 0 -4
BITMAP
FF80
0180
0180
0180
F980
1980
1980
1980
1980
1980
1980
1980
1980
ENDCHAR
STARTCHAR SF500000
ENCODING 9560
SWIDTH 585 0
DWIDTH 12 0
BBX 7 13 5 4
BITMAP
C0
C0
C0
C0
C0
C0
C0
C0
FE
C0
C0
C0
FE
ENDCHAR
STARTCHAR SF490000
ENCODING 9561
SWIDTH 585 0
DWIDTH 12 0
BBX 9 11 3 6
BITMAP
CC00
CC00
CC00
CC00
CC00
CC00
CC00
CC00
CC00
CC00
FF80
ENDCHAR
STARTCHAR SF380000
ENCODING 9562
SWIDTH 585 0
DWIDTH 12 0
BBX 9 13 3 4
BITMAP
CC00
CC00
CC00
CC00
CC00
CC00
CC00
CC00
CF80
C000
C000
C000
FF80
ENDCHAR
STARTCHAR SF280000
ENCODING 9563
SWIDTH 585 0
DWIDTH 12 0
BBX 7 13 0 4
BITMAP
06
06
06
06
06
06
06
06
FE
06
06
06
FE
ENDCHAR
STARTCHAR SF270000
ENCODING 9564
SWIDTH 585 0
DWIDTH 12 0
BBX 9 11 0 6
BITMAP
1980
1980
1980
1980
1980
1980
1980
1980
1980
1980
FF80
ENDCHAR
STARTCHAR SF260000
ENCODING 9565
SWIDTH 585 0
DWIDTH 12 0
BBX 9 13 0 4
BITMAP
1980
1980
1980
1980
1980
1980
1980
1980
F980
0180
0180
0180
FF80
ENDCHAR
STARTCHAR SF360000
ENCODING 9566
SWIDTH 585 0
DWIDTH 12 0
BBX 7 21 5 -4
BITMAP
C0
C0
C0
C0
C0
C0
C0
C0
FE
C0
C0
C0
FE
C0
C0
C0
C0
C0
C0
C0
C0
ENDCHAR
STARTCHAR SF370000
ENCODING 9567
SWIDTH 585 0
DWIDTH 12 0
BBX 9 21 3 -4
BITMAP
CC00
CC00
CC00
CC00
CC00
CC00
CC00
CC00
CC00
CC00
CF80
CC00
CC00
CC00
CC00
CC00
CC00
CC00
CC00
CC00
CC00
ENDCHAR
STARTCHAR SF420000
ENCODING 9568
SWIDTH 585 0
DWIDTH 12 0
BBX 9 21 3 -4
BITMAP
CC00
CC00
CC00
CC00
CC00
CC00
CC00
CC00
CF80
C000
C000
C000
CF80
CC00
CC00
CC00
CC00
CC00
CC00
CC00
CC00
ENDCHAR
STARTCHAR SF190000
ENCODING 9569
SWIDTH 585 0
DWIDTH 12 0
BBX 7 21 0 -4
BITMAP
06
06
06
06
06
06
06
06
FE
06
06
06
FE
06
06
06
06
06
06
06
06
ENDCHAR
STARTCHAR SF200000
ENCODING 9570
SWIDTH 585 0
DWIDTH 12 0
BBX 9 21 0 -4
BITMAP
1980
1980
1980
1980
1980
1980
1980
1980
1980
1980
F980
1980
1980
1980
1980
1980
1980
1980
1980
1980
1980
ENDCHAR
STARTCHAR SF230000
ENCODING 9571
SWIDTH 585 0
DWIDTH 12 0
BBX 9 21 0 -4
BITMAP
1980
1980
1980
1980
1980
1980
1980
1980
F980
0180
0180
0180
F980
1980
1980
1980
1980
1980
1980
1980
1980
ENDCHAR
STARTCHAR SF470000
ENCODING 9572
SWIDTH 585 0
DWIDTH 12 0
BBX 12 13 0 -4
BITMAP
FFF0
0000
0000
0000
FFF0
0600
0600
0600
0600
0600
0600
0600
0600
ENDCHAR
STARTCHAR SF480000
ENCODING 9573
SWIDTH 585 0
DWIDTH 12 0
BBX 12 11 0 -4
BITMAP
FFF0
1980
1980
1980
1980
1980
1980
1980
1980
1980
1980
ENDCHAR
STARTCHAR SF410000
ENCODING 9574
SWIDTH 585 0
DWIDTH 12 0
BBX 12 13 0 -4
BITMAP
FFF0
0000
0000
0000
F9F0
1980
1980
1980
1980
1980
1980
1980
1980
ENDCHAR
STARTCHAR SF450000
ENCODING 9575
SWIDTH 585 0
DWIDTH 12 0
BBX 12 13 0 4
BITMAP
0600
0600
0600
0600
0600
0600
0600
0600
FFF0
0000
0000
0000
FFF0
ENDCHAR
STARTCHAR SF460000
ENCODING 9576
SWIDTH 585 0
DWIDTH 12 0
BBX 12 11 0 6
BITMAP
1980
1980
1980
1980
1980
1980
1980
1980
1980
1980
FFF0
ENDCHAR
STARTCHAR SF400000
ENCODING 9577
SWIDTH 585 0
DWIDTH 12 0
BBX 12 13 0 4
BITMAP
1980
1980
1980
1980
1980
1980
1980
1980
F9F0
0000
0000
0000
FFF0
ENDCHAR
STARTCHAR SF540000
ENCODING 9578
SWIDTH 585 0
DWIDTH 12 0
BBX 12 21 0 -4
BITMAP
0600
0600
0600
0600
0600
0600
0600
0600
FFF0
0600
0600
0600
FFF0
0600
0600
0600
0600
0600
0600
0600
0600
ENDCHAR
STARTCHAR SF530000
ENCODING 9579
SWIDTH 585 0
DWIDTH 12 0
BBX 12 21 0 -4
BITMAP
1980
1980
1980
1980
1980
1980
1980
1980
1980
1980
FFF0
1980
1980
1980
1980
1980
1980
1980
1980
1980
1980
ENDCHAR
STARTCHAR SF440000
ENCODING 9580
SWIDTH 585 0
DWIDTH 12 0
BBX 12 21 0 -4
BITMAP
1980
1980
1980
1980
1980
1980
1980
1980
F9F0
0000
0000
0000
F9F0
1980
1980
1980
1980
1980
1980
1980
1980
ENDCHAR
STARTCHAR dnblock
ENCODING 9604
SWIDTH 585 0
DWIDTH 12 0
BBX 12 11 0 -4
BITMAP
FFF0
FFF0
FFF0
FFF0
FFF0
FFF0
FFF0
FFF0
FFF0
FFF0
FFF0
ENDCHAR
STARTCHAR block
ENCODING 9608
SWIDTH 585 0
DWIDTH 12 0
BBX 12 21 0 -4
BITMAP
FFF0
FFF0
FFF0
FFF0
FFF0
FFF0
FFF0
FFF0
FFF0
FFF0
FFF0
FFF0
FFF0
FFF0
FFF0
FFF0
FFF0
FFF0
FFF0
FFF0
FFF0
ENDCHAR
STARTCHAR lfblock
ENCODING 9612
SWIDTH 585 0
DWIDTH 12 0
BBX 6 21 0 -4
BITMAP
FC
FC
FC
FC
FC
FC
FC
FC
FC
FC
FC
FC
FC
FC
FC
FC
FC
FC
FC
FC
FC
ENDCHAR
STARTCHAR shade
ENCODING 9618
SWIDTH 585 0
DWIDTH 12 0
BBX 12 21 0 -4
BITMAP
B5A0
4A50
B5A0
4A50
B5A0
4A50
B5A0
4A50
B5A0
4A50
B5A0
4A50
FFF0
B5A0
4A50
B5A0
4A50
B5A0
4A50
B5A0
4A50
ENDCHAR
STARTCHAR dkshade
ENCODING 9619
SWIDTH 585 0
DWIDTH 12 0
BBX 12 21 0 -4
BITMAP
B5A0
FFF0
4A50
FFF0
B5A0
FFF0
4A50
FFF0
B5A0
FFF0
4A50
FFF0
FFF0
B5A0
FFF0
4A50
FFF0
B5A0
FFF0
4A50
FFF0
ENDCHAR
STARTCHAR filledbox
ENCODING 9632
SWIDTH 585 0
DWIDTH 12 0
BBX 9 9 2 2
BITMAP
FF80
FF80
FF80
FF80
FF80
FF80
FF80
FF80
FF80
ENDCHAR
STARTCHAR H22073
ENCODING 9633
SWIDTH 585 0
DWIDTH 12 0
BBX 9 9 2 2
BITMAP
FF80
8180
8180
8180
8180
8180
8180
8180
FF80
ENDCHAR
STARTCHAR H18543
ENCODING 9642
SWIDTH 585 0
DWIDTH 12 0
BBX 6 7 3 3
BITMAP
FC
FC
FC
FC
FC
FC
FC
ENDCHAR
STARTCHAR H18551
ENCODING 9643
SWIDTH 585 0
DWIDTH 12 0
BBX 6 7 3 3
BITMAP
FC
FC
84
84
84
FC
FC
ENDCHAR
STARTCHAR triagup
ENCODING 9650
SWIDTH 585 0
DWIDTH 12 0
BBX 8 9 2 2
BITMAP
10
18
18
3C
3C
7E
7E
FF
FF
ENDCHAR
STARTCHAR triagdn
ENCODING 9660
SWIDTH 585 0
DWIDTH 12 0
BBX 8 8 2 3
BITMAP
FF
FF
7E
7E
3C
3C
18
18
ENDCHAR
STARTCHAR lozenge
ENCODING 9674
SWIDTH 585 0
DWIDTH 12 0
BBX 9 13 2 0
BITMAP
0800
1800
3400
2600
4200
C100
8180
C100
4200
2600
3400
1800
1000
ENDCHAR
STARTCHAR circle
ENCODING 9675
SWIDTH 585 0
DWIDTH 12 0
BBX 10 11 1 1
BITMAP
1E00
3F80
61C0
C0C0
C040
8040
C040
C0C0
61C0
3F80
1E00
ENDCHAR
STARTCHAR H18533
ENCODING 9679
SWIDTH 585 0
DWIDTH 12 0
BBX 10 11 1 1
BITMAP
1E00
3F80
7FC0
FFC0
FFC0
FFC0
FFC0
FFC0
7FC0
3F80
1E00
ENDCHAR
STARTCHAR openbullet
ENCODING 9702
SWIDTH 585 0
DWIDTH 12 0
BBX 6 6 3 4
BITMAP
38
6C
C4
C4
6C
38
ENDCHAR
STARTCHAR female
ENCODING 9792
SWIDTH 585 0
DWIDTH 12 0
BBX 10 15 1 0
BITMAP
1E00
3300
6180
4080
4080
4080
6180
3F00
0C00
0C00
FFC0
FFC0
0C00
0C00
0C00
ENDCHAR
STARTCHAR male
ENCODING 9794
SWIDTH 585 0
DWIDTH 12 0
BBX 9 15 2 0
BITMAP
1800
1C00
3E00
7E00
DB00
9980
1800
3E00
6300
C100
8100
8100
C100
6300
3E00
ENDCHAR
STARTCHAR spade
ENCODING 9824
SWIDTH 585 0
DWIDTH 12 0
BBX 11 15 0 0
BITMAP
0600
0F00
1F80
3FC0
7FC0
7FE0
7FE0
FFE0
7FE0
7FE0
36C0
0600
0600
0600
3FC0
ENDCHAR
STARTCHAR club
ENCODING 9827
SWIDTH 585 0
DWIDTH 12 0
BBX 10 15 1 0
BITMAP
1C00
1E00
3F00
3F00
1E00
FF80
FFC0
FFC0
FFC0
FFC0
7F80
0C00
0C00
0C00
7F80
ENDCHAR
STARTCHAR heart
ENCODING 9829
SWIDTH 585 0
DWIDTH 12 0
BBX 11 15 0 0
BITMAP
39C0
7BE0
7FE0
7FE0
7FE0
FFE0
7FE0
7FE0
7FE0
3FC0
3F80
1F80
0F00
0E00
0400
ENDCHAR
STARTCHAR diamond
ENCODING 9830
SWIDTH 585 0
DWIDTH 12 0
BBX 10 15 1 0
BITMAP
0800
0C00
1E00
1E00
3F00
7F00
7F80
FFC0
7F80
7F00
3F00
1E00
1E00
0C00
0800
ENDCHAR
STARTCHAR musicalnote
ENCODING 9834
SWIDTH 585 0
DWIDTH 12 0
BBX 10 15 1 0
BITMAP
0800
0E00
0F00
0F00
0D80
0CC0
0CC0
0CC0
0CC0
0C80
0C00
7C00
FC00
F800
F000
ENDCHAR
STARTCHAR .notdef
ENCODING -1
SWIDTH 598 0
DWIDTH 13 0
BBX 1 1 0 0
BITMAP
00
ENDCHAR
STARTCHAR circumflex.cap
ENCODING -1
SWIDTH 598 0
DWIDTH 13 0
BBX 6 3 3 13
BITMAP
38
6C
84
ENDCHAR
STARTCHAR caron.cap
ENCODING -1
SWIDTH 598 0
DWIDTH 13 0
BBX 7 3 3 13
BITMAP
C6
7C
30
ENDCHAR
STARTCHAR acute.cap
ENCODING -1
SWIDTH 598 0
DWIDTH 13 0
BBX 4 3 5 13
BITMAP
30
F0
80
ENDCHAR
STARTCHAR grave.cap
ENCODING -1
SWIDTH 598 0
DWIDTH 13 0
BBX 4 3 5 13
BITMAP
C0
E0
30
ENDCHAR
STARTCHAR r.serif
ENCODING -1
SWIDTH 598 0
DWIDTH 13 0
BBX 9 11 2 0
BITMAP
EF80
7880
7000
7000
6000
6000
6000
6000
6000
6000
F800
ENDCHAR
STARTCHAR hungarumlaut.cap
ENCODING -1
SWIDTH 598 0
DWIDTH 13 0
BBX 8 3 3 16
BITMAP
33
66
CC
ENDCHAR
STARTCHAR zero.noslash
ENCODING -1
SWIDTH 598 0
DWIDTH 13 0
BBX 9 15 2 0
BITMAP
3C00
6600
4300
C100
C180
8180
8180
8180
8180
8180
C180
C100
4300
6600
3C00
ENDCHAR
STARTCHAR acute.cap.pl
ENCODING -1
SWIDTH 585 0
DWIDTH 12 0
BBX 3 3 5 13
BITMAP
60
40
C0
ENDCHAR
STARTCHAR acute.pl
ENCODING -1
SWIDTH 585 0
DWIDTH 12 0
BBX 2 4 6 13
BITMAP
C0
C0
80
80
ENDCHAR
STARTCHAR Cacute.pl
ENCODING -1
SWIDTH 585 0
DWIDTH 12 0
BBX 11 19 1 0
BITMAP
0600
0400
0C00
0000
1F80
30C0
6060
6000
C000
C000
C000
C000
C000
C000
4000
6000
7040
39C0
1F00
ENDCHAR
STARTCHAR cacute.pl
ENCODING -1
SWIDTH 585 0
DWIDTH 12 0
BBX 9 17 2 0
BITMAP
0C00
0C00
0800
0800
0000
0000
3F00
6180
C080
C000
8000
8000
C000
C000
E000
7380
3F00
ENDCHAR
STARTCHAR Nacute.pl
ENCODING -1
SWIDTH 585 0
DWIDTH 12 0
BBX 10 19 1 0
BITMAP
0600
0400
0C00
0000
E0C0
E0C0
F0C0
F0C0
D8C0
D8C0
CCC0
C4C0
C6C0
C3C0
C3C0
C1C0
C1C0
C0C0
C040
ENDCHAR
STARTCHAR nacute.pl
ENCODING -1
SWIDTH 585 0
DWIDTH 12 0
BBX 9 17 2 0
BITMAP
0C00
0C00
0800
0800
0000
0000
DF00
E300
C180
C180
C180
C180
C180
C180
C180
C180
C180
ENDCHAR
STARTCHAR Oacute.pl
ENCODING -1
SWIDTH 585 0
DWIDTH 12 0
BBX 11 19 1 0
BITMAP
0600
0400
0C00
0000
1F00
3180
60C0
C0C0
C040
C060
C060
C060
C060
C060
C040
60C0
60C0
3F80
1F00
ENDCHAR
STARTCHAR oacute.pl
ENCODING -1
SWIDTH 585 0
DWIDTH 12 0
BBX 10 17 1 0
BITMAP
0600
0600
0400
0400
0000
0000
1F00
3180
60C0
C0C0
C040
C040
C040
C0C0
60C0
3180
1F00
ENDCHAR
STARTCHAR Sacute.pl
ENCODING -1
SWIDTH 585 0
DWIDTH 12 0
BBX 9 19 2 0
BITMAP
0C00
0800
1800
0000
3F00
6380
C000
C000
C000
6000
3800
1E00
0380
0180
0080
8180
8180
E700
7E00
ENDCHAR
STARTCHAR sacute.pl
ENCODING -1
SWIDTH 585 0
DWIDTH 12 0
BBX 9 17 2 0
BITMAP
0C00
0C00
0800
0800
0000
0000
7F00
6380
C000
E000
7800
1F00
0380
0180
8180
E300
7E00
ENDCHAR
STARTCHAR Zacute.pl
ENCODING -1
SWIDTH 585 0
DWIDTH 12 0
BBX 10 19 1 0
BITMAP
0600
0400
0C00
0000
7FC0
00C0
0180
0180
0300
0600
0600
0C00
0C00
1800
3000
3000
6000
7FC0
FFC0
ENDCHAR
STARTCHAR zacute.pl
ENCODING -1
SWIDTH 585 0
DWIDTH 12 0
BBX 10 17 1 0
BITMAP
0600
0600
0400
0400
0000
0000
7FC0
0180
0300
0300
0600
0C00
1800
3000
7000
7FC0
FFC0
ENDCHAR
ENDFONT
